<svg xmlns="http://www.w3.org/2000/svg" width="538.298" height="358.675" viewBox="0 0 538.298 358.675">
  <g id="Group_9064" data-name="Group 9064" transform="translate(-1151.869 -251.237)">
    <g id="Group_8023" data-name="Group 8023" transform="translate(1495.238 284.729)">
      <path id="Path_17173" data-name="Path 17173" d="M34.127,428.9a1.381,1.381,0,0,1-.628,1.305c-.351.176-1.255.954-1.782.653a6.7,6.7,0,0,1-2.51-4.217c0-.628,1.18-1.054,1.531-1.28a1.356,1.356,0,0,1,1.381.151,4.292,4.292,0,0,1,2.008,3.389Z" transform="translate(137.053 -267.539)" fill="#824b18"/>
      <path id="Path_17174" data-name="Path 17174" d="M33.586,429.207c0,1.255-.879,1.757-1.958,1.13a4.368,4.368,0,0,1-1.958-3.389c0-1.255.879-1.757,1.958-1.155A4.368,4.368,0,0,1,33.586,429.207Z" transform="translate(136.44 -267.089)" fill="#607d8b"/>
      <path id="Path_17175" data-name="Path 17175" d="M32.018,427.828c0,.628-.427.879-.979.577a2.235,2.235,0,0,1-.979-1.707c0-.627.452-.879.979-.552a2.084,2.084,0,0,1,.979,1.682Z" transform="translate(137.029 -266.388)" fill="#824b18"/>
      <path id="Path_17176" data-name="Path 17176" d="M34.552,429.2a1.356,1.356,0,0,1-.6,1.28c-.351.176-1.28.979-1.782.678a6.627,6.627,0,0,1-2.51-4.242c0-.628,1.2-1.054,1.556-1.255a1.406,1.406,0,0,1,1.381.125,4.368,4.368,0,0,1,1.958,3.414Z" transform="translate(135.499 -267.087)" fill="#ad6420"/>
      <path id="Path_17177" data-name="Path 17177" d="M34.026,429.412c0,1.255-.879,1.757-1.958,1.13a4.293,4.293,0,0,1-1.958-3.389c0-1.255.879-1.757,1.958-1.13A4.368,4.368,0,0,1,34.026,429.412Z" transform="translate(134.896 -266.767)" fill="#607d8b"/>
      <path id="Path_17178" data-name="Path 17178" d="M32.458,428.1c0,.628-.452.879-.979.552a2.084,2.084,0,0,1-.979-1.682c0-.628.427-.879.979-.577a2.234,2.234,0,0,1,.979,1.707Z" transform="translate(135.484 -265.986)" fill="#824b18"/>
      <path id="Path_17179" data-name="Path 17179" d="M35.027,429.407a1.381,1.381,0,0,1-.6,1.305c-.351.176-1.28.954-1.807.653a6.7,6.7,0,0,1-2.51-4.217c0-.628,1.18-1.055,1.556-1.255a1.33,1.33,0,0,1,1.381.125A4.368,4.368,0,0,1,35.027,429.407Z" transform="translate(133.895 -266.762)" fill="#824b18"/>
      <path id="Path_17180" data-name="Path 17180" d="M34.5,429.672c0,1.255-.879,1.757-1.958,1.13a4.317,4.317,0,0,1-1.983-3.389c0-1.255.879-1.757,1.983-1.13a4.292,4.292,0,0,1,1.958,3.389Z" transform="translate(133.291 -266.374)" fill="#607d8b"/>
      <path id="Path_17181" data-name="Path 17181" d="M32.983,428.338c0,.628-.452.879-.979.577a2.209,2.209,0,0,1-1-1.707c0-.628.452-.879,1-.552a2.159,2.159,0,0,1,.979,1.682Z" transform="translate(133.704 -265.618)" fill="#824b18"/>
      <path id="Path_17182" data-name="Path 17182" d="M54.708,417.2a1.381,1.381,0,0,1-.628,1.28c-.351.176-1.255.954-1.782.653a6.627,6.627,0,0,1-2.51-4.217c0-.628,1.18-1.054,1.531-1.255a1.406,1.406,0,0,1,1.381.126,4.318,4.318,0,0,1,2.008,3.414Z" transform="translate(64.81 -285.211)" fill="#824b18"/>
      <path id="Path_17183" data-name="Path 17183" d="M54.166,417.472c0,1.255-.879,1.757-1.958,1.13a4.318,4.318,0,0,1-1.958-3.389c0-1.255.879-1.757,1.958-1.13A4.317,4.317,0,0,1,54.166,417.472Z" transform="translate(64.197 -284.8)" fill="#607d8b"/>
      <path id="Path_17184" data-name="Path 17184" d="M52.6,416.163c0,.6-.427.879-.979.552a2.209,2.209,0,0,1-.979-1.707c0-.628.452-.879.979-.552a2.134,2.134,0,0,1,.979,1.707Z" transform="translate(64.786 -284.044)" fill="#824b18"/>
      <path id="Path_17185" data-name="Path 17185" d="M55.131,417.474a1.305,1.305,0,0,1-.6,1.28c-.351.2-1.28.979-1.782.678a6.627,6.627,0,0,1-2.51-4.242c0-.628,1.2-1.054,1.556-1.255a1.355,1.355,0,0,1,1.381.151A4.318,4.318,0,0,1,55.131,417.474Z" transform="translate(63.258 -284.802)" fill="#ad6420"/>
      <path id="Path_17186" data-name="Path 17186" d="M54.606,417.744c0,1.23-.879,1.757-1.958,1.13a4.368,4.368,0,0,1-1.958-3.414c0-1.23.879-1.757,1.958-1.13a4.368,4.368,0,0,1,1.958,3.414Z" transform="translate(62.652 -284.42)" fill="#607d8b"/>
      <path id="Path_17187" data-name="Path 17187" d="M53.038,416.4c0,.628-.452.879-.979.577a2.159,2.159,0,0,1-.979-1.707c0-.628.427-.879.979-.577a2.234,2.234,0,0,1,.979,1.707Z" transform="translate(63.242 -283.657)" fill="#824b18"/>
      <path id="Path_17188" data-name="Path 17188" d="M55.607,417.735a1.356,1.356,0,0,1-.6,1.28c-.351.176-1.28.979-1.807.653a6.577,6.577,0,0,1-2.51-4.217c0-.628,1.18-1.054,1.556-1.255a1.406,1.406,0,0,1,1.381.125,4.368,4.368,0,0,1,1.983,3.414Z" transform="translate(61.651 -284.411)" fill="#824b18"/>
      <path id="Path_17189" data-name="Path 17189" d="M55.081,417.982c0,1.255-.879,1.757-1.958,1.13a4.292,4.292,0,0,1-1.983-3.389c0-1.255.879-1.757,1.983-1.13A4.318,4.318,0,0,1,55.081,417.982Z" transform="translate(61.048 -284.03)" fill="#607d8b"/>
      <path id="Path_17190" data-name="Path 17190" d="M53.513,416.673c0,.628-.452.879-.979.552a2.159,2.159,0,0,1-1-1.707c0-.628.452-.879,1-.552a2.209,2.209,0,0,1,.979,1.707Z" transform="translate(61.637 -283.274)" fill="#824b18"/>
      <path id="Path_17191" data-name="Path 17191" d="M50.757,428.9a1.381,1.381,0,0,0,.628,1.305c.351.176,1.255.954,1.782.653a6.7,6.7,0,0,0,2.51-4.217c0-.628-1.18-1.054-1.531-1.28a1.356,1.356,0,0,0-1.381.151A4.293,4.293,0,0,0,50.757,428.9Z" transform="translate(61.43 -267.539)" fill="#824b18"/>
      <path id="Path_17192" data-name="Path 17192" d="M50.69,429.207c0,1.255.879,1.757,1.958,1.13a4.368,4.368,0,0,0,1.958-3.389c0-1.255-.879-1.757-1.958-1.155a4.368,4.368,0,0,0-1.958,3.414Z" transform="translate(62.652 -267.089)" fill="#607d8b"/>
      <path id="Path_17193" data-name="Path 17193" d="M51.08,427.828c0,.628.427.879.979.577a2.235,2.235,0,0,0,.979-1.707c0-.627-.452-.879-.979-.552A2.084,2.084,0,0,0,51.08,427.828Z" transform="translate(63.242 -266.388)" fill="#824b18"/>
      <path id="Path_17194" data-name="Path 17194" d="M50.318,429.2a1.356,1.356,0,0,0,.6,1.28c.351.176,1.28.979,1.782.678a6.627,6.627,0,0,0,2.51-4.242c0-.628-1.2-1.054-1.556-1.255a1.406,1.406,0,0,0-1.381.125A4.368,4.368,0,0,0,50.318,429.2Z" transform="translate(62.999 -267.087)" fill="#ad6420"/>
      <path id="Path_17195" data-name="Path 17195" d="M50.25,429.412c0,1.255.879,1.757,1.958,1.13a4.293,4.293,0,0,0,1.958-3.389c0-1.255-.879-1.757-1.958-1.13A4.368,4.368,0,0,0,50.25,429.412Z" transform="translate(64.197 -266.767)" fill="#607d8b"/>
      <path id="Path_17196" data-name="Path 17196" d="M50.64,428.1c0,.628.452.879.979.552a2.084,2.084,0,0,0,.979-1.682c0-.628-.427-.879-.979-.577a2.234,2.234,0,0,0-.979,1.707Z" transform="translate(64.786 -265.986)" fill="#824b18"/>
      <path id="Path_17197" data-name="Path 17197" d="M49.859,429.407a1.381,1.381,0,0,0,.6,1.305c.351.176,1.28.954,1.807.653a6.7,6.7,0,0,0,2.51-4.217c0-.628-1.18-1.055-1.556-1.255a1.33,1.33,0,0,0-1.381.125,4.368,4.368,0,0,0-1.983,3.389Z" transform="translate(64.588 -266.762)" fill="#824b18"/>
      <path id="Path_17198" data-name="Path 17198" d="M49.79,429.672c0,1.255.879,1.757,1.958,1.13a4.318,4.318,0,0,0,1.983-3.389c0-1.255-.879-1.757-1.983-1.13a4.292,4.292,0,0,0-1.958,3.389Z" transform="translate(65.787 -266.374)" fill="#607d8b"/>
      <path id="Path_17199" data-name="Path 17199" d="M50.21,428.338c0,.628.452.879.979.577a2.209,2.209,0,0,0,1-1.707c0-.628-.452-.879-1-.552A2.159,2.159,0,0,0,50.21,428.338Z" transform="translate(66.27 -265.618)" fill="#824b18"/>
      <path id="Path_17200" data-name="Path 17200" d="M30.175,417.2a1.381,1.381,0,0,0,.628,1.28c.351.176,1.255.954,1.782.653a6.627,6.627,0,0,0,2.51-4.217c0-.628-1.18-1.054-1.531-1.255a1.406,1.406,0,0,0-1.381.126,4.318,4.318,0,0,0-2.008,3.414Z" transform="translate(133.675 -285.211)" fill="#824b18"/>
      <path id="Path_17201" data-name="Path 17201" d="M30.11,417.472c0,1.255.879,1.757,1.958,1.13a4.318,4.318,0,0,0,1.958-3.389c0-1.255-.879-1.757-1.958-1.13a4.317,4.317,0,0,0-1.958,3.389Z" transform="translate(134.896 -284.8)" fill="#607d8b"/>
      <path id="Path_17202" data-name="Path 17202" d="M30.5,416.163c0,.6.427.879.979.552a2.209,2.209,0,0,0,.979-1.707c0-.628-.452-.879-.979-.552A2.134,2.134,0,0,0,30.5,416.163Z" transform="translate(135.484 -284.044)" fill="#824b18"/>
      <path id="Path_17203" data-name="Path 17203" d="M29.742,417.474a1.305,1.305,0,0,0,.6,1.28c.351.2,1.28.979,1.782.678a6.627,6.627,0,0,0,2.51-4.242c0-.628-1.2-1.054-1.556-1.255a1.355,1.355,0,0,0-1.381.151,4.318,4.318,0,0,0-1.958,3.389Z" transform="translate(135.239 -284.802)" fill="#ad6420"/>
      <path id="Path_17204" data-name="Path 17204" d="M29.67,417.744c0,1.23.879,1.757,1.958,1.13a4.368,4.368,0,0,0,1.958-3.414c0-1.23-.879-1.757-1.958-1.13a4.368,4.368,0,0,0-1.958,3.414Z" transform="translate(136.44 -284.42)" fill="#607d8b"/>
      <path id="Path_17205" data-name="Path 17205" d="M30.06,416.4c0,.628.452.879.979.577a2.159,2.159,0,0,0,.979-1.707c0-.628-.427-.879-.979-.577a2.234,2.234,0,0,0-.979,1.707Z" transform="translate(137.029 -283.657)" fill="#824b18"/>
      <path id="Path_17206" data-name="Path 17206" d="M29.282,417.8a1.356,1.356,0,0,0,.577,1.18c.351.176,1.28.979,1.807.653a6.576,6.576,0,0,0,2.51-4.217c0-.628-1.18-1.054-1.556-1.255a1.406,1.406,0,0,0-1.381.126A4.368,4.368,0,0,0,29.282,417.8Z" transform="translate(136.828 -284.471)" fill="#824b18"/>
      <path id="Path_17207" data-name="Path 17207" d="M29.21,417.982c0,1.255.879,1.757,1.958,1.13a4.292,4.292,0,0,0,1.983-3.389c0-1.255-.879-1.757-1.983-1.13A4.318,4.318,0,0,0,29.21,417.982Z" transform="translate(138.03 -284.03)" fill="#607d8b"/>
      <path id="Path_17208" data-name="Path 17208" d="M29.6,416.673c0,.628.452.879.979.552a2.159,2.159,0,0,0,1-1.707c0-.628-.452-.879-1-.552a2.209,2.209,0,0,0-.979,1.707Z" transform="translate(138.619 -283.274)" fill="#824b18"/>
      <path id="Path_17209" data-name="Path 17209" d="M29.89,430.568l24.9-14.384V412.77l-24.9,11.7Z" transform="translate(114.681 -286.374)" fill="#824b18"/>
      <path id="Path_17210" data-name="Path 17210" d="M29.89,424.128l24.9-11.7,1.481.854-24.9,11.7Z" transform="translate(113.2 -286.888)" fill="#ad6420"/>
      <path id="Path_17211" data-name="Path 17211" d="M41.291,424.044l-1.481-.853v-6.1l1.481.854Z" transform="translate(103.28 -279.85)" fill="#607d8b"/>
      <path id="Path_17212" data-name="Path 17212" d="M66.823,430.568l-24.9-14.384V412.77l24.9,11.7Z" transform="translate(72.451 -286.374)" fill="#607d8b"/>
      <path id="Path_17213" data-name="Path 17213" d="M67.714,424.128l-24.9-11.7-1.481.854,24.9,11.7Z" transform="translate(73.042 -286.888)" fill="#ad6420"/>
      <path id="Path_17214" data-name="Path 17214" d="M41.33,424.044l1.481-.853v-6.1l-1.481.854Z" transform="translate(97.944 -279.85)" fill="#824b18"/>
      <path id="Path_17215" data-name="Path 17215" d="M40.87,415.74v12.326A1.908,1.908,0,0,0,42,429.647a5.625,5.625,0,0,0,2.711.653V417.974A5.346,5.346,0,0,1,42,417.322,1.908,1.908,0,0,1,40.87,415.74Z" transform="translate(97.199 -281.888)" fill="#607d8b"/>
      <path id="Path_17216" data-name="Path 17216" d="M42.066,417.322a5.4,5.4,0,0,1-2.736.653V430.3a5.648,5.648,0,0,0,2.736-.653,1.908,1.908,0,0,0,1.13-1.582V415.74a1.908,1.908,0,0,1-1.13,1.582Z" transform="translate(102.581 -281.888)" fill="#824b18"/>
      <path id="Path_17217" data-name="Path 17217" d="M45.907,415.517c1.506.879,1.506,2.284,0,3.138a5.95,5.95,0,0,1-5.447,0c-1.506-.854-1.506-2.259,0-3.138A5.949,5.949,0,0,1,45.907,415.517Z" transform="translate(98.739 -283.222)" fill="#ad6420"/>
      <path id="Path_17218" data-name="Path 17218" d="M43.872,396.07v50.809a4.469,4.469,0,0,1-2.134-.5,1.531,1.531,0,0,1-.879-1.23V396.07Z" transform="translate(98.063 -311.597)" fill="#607d8b"/>
      <path id="Path_17219" data-name="Path 17219" d="M42.672,396.07v49.077a1.531,1.531,0,0,1-.879,1.23,4.62,4.62,0,0,1-2.134.5V396.07Z" transform="translate(102.275 -311.597)" fill="#824b18"/>
      <path id="Path_17220" data-name="Path 17220" d="M30.48,424.41l24.9,14.359v-3.414L30.48,418.31Z" transform="translate(112.61 -278.007)" fill="#607d8b"/>
      <path id="Path_17221" data-name="Path 17221" d="M56.274,435.015l-24.9-17.045-1.481.853,24.9,17.045Z" transform="translate(113.2 -278.521)" fill="#ad6420"/>
      <path id="Path_17222" data-name="Path 17222" d="M29.89,429.028l1.481-.854V424.76l-1.481.854Z" transform="translate(138.103 -268.265)" fill="#824b18"/>
      <path id="Path_17223" data-name="Path 17223" d="M66.233,424.41l-24.9,14.359v-3.414l24.9-17.045Z" transform="translate(74.523 -278.007)" fill="#824b18"/>
      <path id="Path_17224" data-name="Path 17224" d="M41.33,435.015l24.9-17.045,1.481.853-24.9,17.045Z" transform="translate(73.042 -278.521)" fill="#ad6420"/>
      <path id="Path_17225" data-name="Path 17225" d="M52.731,429.028l-1.481-.854V424.76l1.481.854Z" transform="translate(63.122 -268.265)" fill="#607d8b"/>
      <path id="Path_17226" data-name="Path 17226" d="M46.515,406.632a8.334,8.334,0,0,0,.276,14.861l10.518,6.075a22.391,22.391,0,0,0,11,2.636V396.39Z" transform="translate(70.543 -311.114)" fill="#607d8b"/>
      <path id="Path_17227" data-name="Path 17227" d="M29.14,396.39V430.2a22.393,22.393,0,0,0,11-2.636l21.514-12.426v-2.636Z" transform="translate(109.708 -311.114)" fill="#824b18"/>
      <path id="Path_17228" data-name="Path 17228" d="M44.165,426.518l-10.518-6.075c-6.075-3.489-6.075-9.188,0-12.7l21.514-12.4,32.635,18.752L66.281,426.518a24.249,24.249,0,0,1-22.116,0Z" transform="translate(83.687 -312.7)" fill="#f8ba70"/>
      <path id="Path_17229" data-name="Path 17229" d="M29.14,402.018l29.873,30.35,2.636-1.556V392.253a20.811,20.811,0,0,0-1.782-7.983Z" transform="translate(109.708 -329.419)" fill="#ad6420"/>
      <path id="Path_17230" data-name="Path 17230" d="M53.5,384.338l-10.518-6.075c-6.075-3.489-13.129,0-13.129,7.054l2.134,27.84L62.71,395.408A23.923,23.923,0,0,0,53.5,384.338Z" transform="translate(106.864 -340.558)" fill="#f8ba70"/>
      <path id="Path_17231" data-name="Path 17231" d="M62.825,404.1v38.559L30.19,423.877V385.318c0-7.029,5.021-9.866,11-6.351l10.518,6.05A24.35,24.35,0,0,1,62.825,404.1Z" transform="translate(105.896 -339.706)" fill="#cd853e"/>
      <path id="Path_17232" data-name="Path 17232" d="M30.24,402.738l29.873,30.124,2.51-1.531V392.873a20.61,20.61,0,0,0-1.782-7.983Z" transform="translate(105.972 -328.482)" fill="#0277bd"/>
      <path id="Path_17233" data-name="Path 17233" d="M54.547,384.939l-10.518-6.05c-6.075-3.514-13.129,0-13.129,7.054l2.134,27.94L63.76,396.035a23.873,23.873,0,0,0-9.213-11.1Z" transform="translate(103.178 -339.627)" fill="#29b6f6"/>
      <path id="Path_17234" data-name="Path 17234" d="M63.875,404.706v38.458L31.24,424.387V385.928c0-7.029,5.021-9.866,11.02-6.351l10.493,6.05A24.35,24.35,0,0,1,63.875,404.706Z" transform="translate(102.21 -338.784)" fill="#039be5"/>
      <path id="Path_17235" data-name="Path 17235" d="M65.89,396l-19.505,7.531c-6.075,3.514-5.447,12.552.628,16.116l10.518,6.075a22.593,22.593,0,0,0,10.895,2.636V397.23Z" transform="translate(70.321 -311.703)" fill="#039be5"/>
      <path id="Path_17236" data-name="Path 17236" d="M30.19,396.41v31.128a22.593,22.593,0,0,0,11.1-2.636l18.878-10.87-2.51-2.259Z" transform="translate(108.557 -311.084)" fill="#0277bd"/>
      <path id="Path_17237" data-name="Path 17237" d="M46.315,423.141,35.8,417.091c-6.075-3.514-6.075-9.213,0-12.7l16.242-9.338,32.509,18.777-16.242,9.313a24.25,24.25,0,0,1-21.991,0Z" transform="translate(81.537 -313.137)" fill="#29b6f6"/>
      <path id="Path_17238" data-name="Path 17238" d="M63.446,394.011c-.8,1.481-1.908,2.711-1.431,3.489s2.661-1.958,3.364-2.51,2.51-1.782,2.736-1.054v.226a.954.954,0,0,1-.3.527c-.552.6-1.456,1.23-1.2,1.933s1.481-.2,3.012-1.054H69.8a12.551,12.551,0,0,1,4.092-1.757c2.284-.176,3.941-3.866,3.941-3.866a22.87,22.87,0,0,0-8.811.577,10.042,10.042,0,0,0-5.573,3.49Z" transform="translate(11.287 -321.136)" fill="#f1ceb5"/>
      <path id="Path_17239" data-name="Path 17239" d="M94.063,381.6c-1.632-1.556-5.171-5.623-11.271-.5S69.436,397.389,66.5,399.749s-20.284,4.016-22.066,5.548a4.217,4.217,0,0,0,.753,6.351c2.184,1.381,19.957.2,26.861-4.217S99.837,387.147,94.063,381.6Z" transform="translate(40.693 -337.994)" fill="#424242"/>
      <path id="Path_17240" data-name="Path 17240" d="M42.632,379.429c.326,1.983.527,3.866.678,5.3a4.82,4.82,0,0,0-2.51,2.636S36.909,396,39.72,396.825c3.766,1.079,17.045-5.724,16.142-6.979-3.012-4.092.828-14.937.828-14.937Z" transform="translate(90.668 -343.556)" fill="#f1ceb5"/>
      <path id="Path_17241" data-name="Path 17241" d="M48.543,381.01v-1.13a14.861,14.861,0,0,0,11.974-2.51v7.355L55.5,395.219,39.23,393.612l2.812-10.041Z" transform="translate(85.509 -339.841)" fill="#f1ceb5"/>
      <path id="Path_17242" data-name="Path 17242" d="M48.466,379.5v-1.13s1.732,3.088,12,1.28a15.339,15.339,0,0,1,0,3.59l-5.021,10.493-16.267-1.607,2.812-10.041Z" transform="translate(85.587 -338.33)" fill="#424242"/>
      <path id="Path_17243" data-name="Path 17243" d="M43.011,388.761c-2.234-.8-3.389-5.8-3.791-8.033l4.87-1.908c-.9,6.778,11.974,2.084,12,2.084v1.657l-1.2,2.51C50.617,387.782,44.391,389.313,43.011,388.761Z" transform="translate(89.963 -337.65)" fill="#e0e0e0"/>
      <path id="Path_17244" data-name="Path 17244" d="M73.171,415.057c.527-14.083,2.259-15.062-.2-21.664-1.356-3.64-12.7-9.916-15.062-10.82a31.981,31.981,0,0,1-12.376,4.719c-.979-3.263-.7-7.079.477-8.134a11.773,11.773,0,0,0-6.5-.2,10.694,10.694,0,0,0-4.795,3.54c-1.2,1.381-2.109,14.234-1.958,20.484a242.827,242.827,0,0,0,1.983,31.429c.251,1.908,2.008,2.711,3.69,3.64a124.48,124.48,0,0,0,19.028,8.384A13.405,13.405,0,0,0,67.5,445.056a4.544,4.544,0,0,0,2.812-3.565,229.242,229.242,0,0,0,2.862-26.434Z" transform="translate(88.069 -337.99)" fill="#616161"/>
      <path id="Path_17245" data-name="Path 17245" d="M48.968,381.6l-1.029,21.94-5.749-2.008,1.682-18.777Z" transform="translate(89.629 -333.452)" fill="#eee"/>
      <path id="Path_17246" data-name="Path 17246" d="M50.245,380.57,44.22,397.289l3.414,3.941,3.188-16.92Z" transform="translate(82.678 -335.007)" fill="#eee"/>
      <path id="Path_17247" data-name="Path 17247" d="M39.057,382.014c0,.753.176,1.481.226,2.109a18.9,18.9,0,0,0,11.774-2.159,44.606,44.606,0,0,1,1.732-7.054L38.68,379.429a22.283,22.283,0,0,0,.326,2.36C39.031,381.864,39.031,381.939,39.057,382.014Z" transform="translate(94.62 -343.556)" fill="#b59b88" opacity="0.3"/>
      <path id="Path_17248" data-name="Path 17248" d="M54.778,368.511a14.184,14.184,0,0,0-15.213,5.9,7.531,7.531,0,0,0-1.23,3.866,12.341,12.341,0,0,1,.251,2.51v.3c-2.058,3.138.2,11.246,1.406,12.05,2.786,1.833,17.572.427,20.083-9.464C61.857,376.971,59.271,369.214,54.778,368.511Z" transform="translate(89.09 -353.85)" fill="#f1ceb5"/>
      <path id="Path_17249" data-name="Path 17249" d="M36.95,375.906c3.841,2.284,4.293,5.573,5.021,8.711,4.745-8.234,5.322,6.326,8.836,2.51s5.548-17.271-3.414-19.706C41.595,365.84,36.95,375.906,36.95,375.906Z" transform="translate(97.956 -355.121)" fill="#824b18"/>
      <path id="Path_17250" data-name="Path 17250" d="M49.15,367.33v7.33a6,6,0,0,1-3.565,5.021A17.371,17.371,0,0,1,37,381.739V367.38Z" transform="translate(102.475 -355.004)" fill="#212121"/>
      <path id="Path_17251" data-name="Path 17251" d="M53.985,367.36v14.359a17.573,17.573,0,0,1-8.611-2.058,6,6,0,0,1-3.565-5.021v-7.33Z" transform="translate(85.565 -355.035)" fill="#424242"/>
      <path id="Path_17252" data-name="Path 17252" d="M40.531,366.606c-4.745,2.736-4.745,7.154,0,9.916a18.978,18.978,0,0,0,17.171,0c4.745-2.761,4.745-7.18,0-9.916a18.827,18.827,0,0,0-17.171,0Z" transform="translate(90.434 -359.226)" fill="#90a4ae"/>
      <path id="Path_17253" data-name="Path 17253" d="M33.98,379.165l19.656-11.372v-.853L33.98,378.312Z" transform="translate(105.57 -355.593)" fill="#424242"/>
      <path id="Path_17254" data-name="Path 17254" d="M61.491,379.165v-.854L41.81,366.94v.853Z" transform="translate(78.059 -355.593)" fill="#616161"/>
      <path id="Path_17255" data-name="Path 17255" d="M53.661,385.139l9.815-5.673,9.841-5.7L53.661,362.42,33.98,373.767l9.364,5.4.954.577Z" transform="translate(85.889 -362.42)" fill="#757575"/>
      <path id="Path_17256" data-name="Path 17256" d="M79.823,437.17v19.656L19.75,491.444V471.737Z" transform="translate(115.106 -249.522)" fill="#363b67"/>
      <path id="Path_17257" data-name="Path 17257" d="M43.68,419.95v19.656l134.856,77.846V497.746Z" transform="translate(-43.68 -275.53)" fill="#4e5381"/>
      <path id="Path_17258" data-name="Path 17258" d="M79.823,406.14l134.856,77.9L154.606,518.6,19.75,440.833Z" transform="translate(-19.75 -296.388)" fill="#1e2d64"/>
      <path id="Path_17259" data-name="Path 17259" d="M78.244,408.94v69.085l-55.6,32.057v-69.11Z" transform="translate(109.429 -292.159)" fill="#363b67"/>
      <path id="Path_17260" data-name="Path 17260" d="M44.79,393.01v69.085L169.6,534.141v-69.11Z" transform="translate(-37.535 -316.219)" fill="#4e5381"/>
      <path id="Path_17261" data-name="Path 17261" d="M203.059,445.024l-55.6,32.007-124.815-72V393.01l124.815,72.022,54.751-31.555.854.5Z" transform="translate(-15.385 -316.219)" opacity="0.1"/>
      <path id="Path_17262" data-name="Path 17262" d="M79.823,409.52v5.222L19.75,449.334v-5.222Z" transform="translate(115.106 -291.283)" fill="#0f1446"/>
      <path id="Path_17263" data-name="Path 17263" d="M43.68,392.31v5.2l134.856,77.821v-5.222Z" transform="translate(-43.68 -317.276)" fill="#363b67"/>
      <path id="Path_17264" data-name="Path 17264" d="M79.823,378.49l134.856,77.9-60.073,34.592L19.75,413.183Z" transform="translate(-19.75 -338.149)" fill="#1e2d64"/>
      <path id="Path_17265" data-name="Path 17265" d="M85.49,434.153v40.718l-32.76-18.9V415.25ZM55.818,453.909,82.3,469.222V436.211L55.717,420.9Z" transform="translate(26.647 -282.629)" fill="#fff"/>
      <path id="Path_17266" data-name="Path 17266" d="M70.01,430.007v16.719l-13.43-7.757V422.25Zm-6.7,10.393c2.812,1.632,5.021.3,5.021-2.962a11.322,11.322,0,0,0-5.021-8.862c-2.837-1.632-5.021-.3-5.021,2.962a11.271,11.271,0,0,0,5.021,8.862Z" transform="translate(32.462 -272.056)" fill="#fff"/>
      <path id="Path_17267" data-name="Path 17267" d="M58.01,427.748a6.9,6.9,0,0,0,3.138,5.4c1.707,1,3.113.2,3.113-1.808a6.954,6.954,0,0,0-3.113-5.4C59.416,424.962,58.01,425.765,58.01,427.748Z" transform="translate(34.622 -267.112)" fill="#fff"/>
      <path id="Path_17268" data-name="Path 17268" d="M106.155,422.133V462.9L73.52,444V403.23ZM76.507,441.889l26.56,15.338V424.191L76.507,408.9Z" transform="translate(-46.208 -300.783)" fill="#fff"/>
      <path id="Path_17269" data-name="Path 17269" d="M90.8,417.967v16.744l-13.43-7.757V410.26Zm-6.6,10.368c2.812,1.632,5.021.326,5.021-2.937a11.322,11.322,0,0,0-5.021-8.862c-2.837-1.632-5.021-.3-5.021,2.937a11.271,11.271,0,0,0,5.021,8.862Z" transform="translate(-40.518 -290.165)" fill="#fff"/>
      <path id="Path_17270" data-name="Path 17270" d="M78.76,415.723A6.828,6.828,0,0,0,82,421.12c1.707,1,3.113.2,3.113-1.782A6.9,6.9,0,0,0,82,413.94C80.166,412.936,78.76,413.74,78.76,415.723Z" transform="translate(-38.318 -285.26)" fill="#fff"/>
      <path id="Path_17271" data-name="Path 17271" d="M54.51,402.637l16.945,9.79,24-13.857-16.945-9.79Z" transform="translate(12.215 -322.607)" fill="#fff"/>
      <path id="Path_17272" data-name="Path 17272" d="M70.74,411.2l22.593-12.928L77.417,389.08,55,402.033Zm21.94-12.928L70.74,410.945,55.3,402.034l21.94-12.677Z" transform="translate(13.106 -322.154)" fill="#29b6f6"/>
      <path id="Path_17273" data-name="Path 17273" d="M45.48,407.962l16.97,9.79L86.424,403.9,69.479,394.13Z" transform="translate(43.913 -314.528)" fill="#fff"/>
      <path id="Path_17274" data-name="Path 17274" d="M61.891,416.546l22.417-12.928L68.392,394.43,46,407.358Zm21.966-12.928L61.891,416.17l-15.439-8.912,21.94-12.552Z" transform="translate(44.724 -314.074)" fill="#29b6f6"/>
      <path id="Path_17275" data-name="Path 17275" d="M47.881,402.005c.552,4.669,9.715,3.615,12.225,3.088a26.133,26.133,0,0,0,9.288-4.242s-3.715-2.837-6.15-1.757c-1,.452-5.473-.728-7.154-.753-.753,0,.628,1.356-.879,1.556C51.9,400.373,47.806,401.277,47.881,402.005Z" transform="translate(54.918 -308.169)" fill="#f1ceb5"/>
      <path id="Path_17276" data-name="Path 17276" d="M74.474,384.55c-5.447-3.54-6.929-4.242-10.82,3.163s-5.749,19.129-8.334,21.84-20.259,11.121-21.79,12.878a4.192,4.192,0,0,0,1.607,6.2c2.335,1.054,20.51-6.878,26.735-12.2,4.192-3.59,13.531-12.9,15.966-21.288A10.945,10.945,0,0,0,74.474,384.55Z" transform="translate(84.155 -332.887)" fill="#424242"/>
      <path id="Path_17277" data-name="Path 17277" d="M43.641,413.089a3.615,3.615,0,0,1,1.657-1.807,9.313,9.313,0,0,1,8.46,0,3.49,3.49,0,0,1,1.657,1.807s0,.628,0,.628a2.987,2.987,0,0,1-1.757,2.51,9.464,9.464,0,0,1-8.46,0,3.037,3.037,0,0,1-1.757-2.51v-.628Z" transform="translate(80.044 -290.157)" fill="#824b18"/>
      <path id="Path_17278" data-name="Path 17278" d="M45.275,411.031a2.51,2.51,0,0,0,0,4.9,9.465,9.465,0,0,0,8.46,0,2.51,2.51,0,0,0,0-4.9,9.313,9.313,0,0,0-8.46,0Z" transform="translate(80.067 -290.535)" fill="#cd853e"/>
      <path id="Path_17279" data-name="Path 17279" d="M43.7,412.785a3.264,3.264,0,0,1,1.582-1.757,9.038,9.038,0,0,1,8.108,0A3.213,3.213,0,0,1,55,412.785s0,.6,0,.6a2.887,2.887,0,0,1-1.707,2.335,8.887,8.887,0,0,1-8.108,0,2.862,2.862,0,0,1-1.682-2.335v-.6Z" transform="translate(80.311 -290.456)" fill="#ffa726"/>
      <path id="Path_17280" data-name="Path 17280" d="M45.145,410.788a2.51,2.51,0,0,0,0,4.694,8.887,8.887,0,0,0,8.108,0,2.51,2.51,0,0,0,0-4.694A9.037,9.037,0,0,0,45.145,410.788Z" transform="translate(80.373 -290.819)" fill="#ffcc80"/>
      <path id="Path_17281" data-name="Path 17281" d="M43.851,412.462a3.213,3.213,0,0,1,1.506-1.657,8.51,8.51,0,0,1,7.707,0,3.013,3.013,0,0,1,1.506,1.657s0,.577,0,.577a2.711,2.711,0,0,1-1.607,2.234,8.51,8.51,0,0,1-7.707,0,2.787,2.787,0,0,1-1.607-2.234v-.577Z" transform="translate(80.362 -290.735)" fill="#824b18"/>
      <path id="Path_17282" data-name="Path 17282" d="M45.223,410.555a2.335,2.335,0,0,0,0,4.443,8.51,8.51,0,0,0,7.707,0,2.335,2.335,0,0,0,0-4.443,8.51,8.51,0,0,0-7.707,0Z" transform="translate(80.495 -291.113)" fill="#cd853e"/>
      <path id="Path_17283" data-name="Path 17283" d="M45.274,410.621a2.059,2.059,0,0,0,0,3.891,7.531,7.531,0,0,0,6.753,0,2.059,2.059,0,0,0,0-3.891,7.531,7.531,0,0,0-6.753,0Z" transform="translate(80.922 -290.827)" fill="#ad6420"/>
      <path id="Path_17284" data-name="Path 17284" d="M41.669,402.557a1.431,1.431,0,0,0-.653-1.1.5.5,0,0,0-.452,0l-2.335,1.356.879,1.582,2.36-1.356C41.594,402.908,41.669,402.908,41.669,402.557Z" transform="translate(106.868 -303.549)" fill="#cd853e"/>
      <path id="Path_17285" data-name="Path 17285" d="M40.45,403.117c0,.427-.276.6-.653.377a1.406,1.406,0,0,1-.628-1.1c0-.427.276-.577.628-.377a1.356,1.356,0,0,1,.653,1.1Z" transform="translate(105.728 -302.754)" fill="#ad6420"/>
      <path id="Path_17286" data-name="Path 17286" d="M52.383,402.982a1.23,1.23,0,0,0-.552-.954.4.4,0,0,0-.377,0l-12.225,7.054.753,1.356,12.225-7.054a.452.452,0,0,0,.176-.4Z" transform="translate(93.644 -302.669)" fill="#cd853e"/>
      <path id="Path_17287" data-name="Path 17287" d="M45.2,405.821c0,.351-.251.477-.552.3a1.23,1.23,0,0,1-.552-.954c0-.351.251-.477.552-.3A1.23,1.23,0,0,1,45.2,405.821Z" transform="translate(88.598 -298.429)" fill="#824b18"/>
      <path id="Path_17288" data-name="Path 17288" d="M44.448,408.062a5.472,5.472,0,0,1,2.51-4.318,1.732,1.732,0,0,1,1.707-.176l.427.2-3.464,6.125-.452-.251a1.732,1.732,0,0,1-.728-1.581Z" transform="translate(83.856 -300.494)" fill="#cd853e"/>
      <path id="Path_17289" data-name="Path 17289" d="M44.12,408.15c0,1.582,1.1,2.234,2.51,1.431a5.423,5.423,0,0,0,2.51-4.293c0-1.582-1.1-2.234-2.51-1.431a5.423,5.423,0,0,0-2.51,4.293Z" transform="translate(84.611 -300.356)" fill="#824b18"/>
      <path id="Path_17290" data-name="Path 17290" d="M42.511,407.661A4.669,4.669,0,0,1,44.644,404a1.481,1.481,0,0,1,1.456-.151l5.021,2.862-2.987,5.247-5.021-2.887a1.531,1.531,0,0,1-.6-1.406Z" transform="translate(86.697 -300.042)" fill="#ad6420"/>
      <path id="Path_17291" data-name="Path 17291" d="M42.25,408.828c0,1.356.929,1.883,2.109,1.23a4.694,4.694,0,0,0,2.134-3.69c0-1.356-.954-1.883-2.134-1.23a4.669,4.669,0,0,0-2.109,3.69Z" transform="translate(91.954 -298.323)" fill="#824b18"/>
      <path id="Path_17292" data-name="Path 17292" d="M43.007,408.111a5.021,5.021,0,0,1,2.309-3.991,1.556,1.556,0,0,1,1.582-.176l2.837,1.607-3.163,5.7-2.887-1.657a1.632,1.632,0,0,1-.678-1.481Z" transform="translate(86.828 -299.915)" fill="#cd853e"/>
      <path id="Path_17293" data-name="Path 17293" d="M42.7,408.76c0,1.481,1.029,2.084,2.31,1.33a5.021,5.021,0,0,0,2.31-3.991c0-1.481-1.054-2.059-2.31-1.331A5.021,5.021,0,0,0,42.7,408.76Z" transform="translate(89.997 -298.933)" fill="#824b18"/>
      <path id="Path_17294" data-name="Path 17294" d="M42.532,408.531a4.694,4.694,0,0,1,2.109-3.665,1.481,1.481,0,0,1,1.456-.151l1.2.678-2.937,5.247-1.2-.7a1.481,1.481,0,0,1-.628-1.406Z" transform="translate(90.467 -298.729)" fill="#ad6420"/>
      <path id="Path_17295" data-name="Path 17295" d="M42.25,408.828c0,1.356.929,1.883,2.109,1.23a4.694,4.694,0,0,0,2.134-3.69c0-1.356-.954-1.883-2.134-1.23a4.669,4.669,0,0,0-2.109,3.69Z" transform="translate(91.954 -298.323)" fill="#824b18"/>
      <path id="Path_17296" data-name="Path 17296" d="M43.828,408.205a5.2,5.2,0,0,1,2.31-4.017,1.732,1.732,0,0,1,1.607-.176l.377.226a1.682,1.682,0,0,0-1.582.176,5.02,5.02,0,0,0-2.31,4.017,1.607,1.607,0,0,0,.678,1.481l-.377-.226A1.581,1.581,0,0,1,43.828,408.205Z" transform="translate(86.383 -299.783)" fill="#ffcc80"/>
      <path id="Path_17297" data-name="Path 17297" d="M43.161,408.586a5.021,5.021,0,0,1,2.284-3.991,1.658,1.658,0,0,1,1.607-.176l.377.226a1.607,1.607,0,0,0-1.582.176,5.146,5.146,0,0,0-2.31,3.991,1.707,1.707,0,0,0,.678,1.506l-.377-.226a1.607,1.607,0,0,1-.678-1.506Z" transform="translate(88.758 -299.186)" fill="#ffcc80"/>
      <path id="Path_17298" data-name="Path 17298" d="M42.467,409.2a5.5,5.5,0,0,1,2.51-4.293,1.782,1.782,0,0,1,1.732-.2l.4.226-3.439,6.125-.427-.251A1.732,1.732,0,0,1,42.467,409.2Z" transform="translate(90.808 -298.766)" fill="#cd853e"/>
      <path id="Path_17299" data-name="Path 17299" d="M42.14,409.29c0,1.607,1.1,2.234,2.51,1.456a5.523,5.523,0,0,0,2.51-4.318c0-1.581-1.1-2.234-2.51-1.431a5.472,5.472,0,0,0-2.51,4.293Z" transform="translate(91.561 -298.634)" fill="#824b18"/>
    </g>
    <g id="Group_8024" data-name="Group 8024" transform="translate(1371.601 251.237)">
      <path id="Path_17692" data-name="Path 17692" d="M372.8,393.037c.768-1.112,1.112-1.43,1.933-.953a12.735,12.735,0,0,1,.688,8.473,26.288,26.288,0,0,0-1.853,4.475c-.132,2.409-3.971,4.21-3.971,4.21-.265-1.006,0-2.807-.424-5.3a37.062,37.062,0,0,1-1.35-6.407c.424,0,2.515,1.589,2.648,1.112A33.258,33.258,0,0,1,372.8,393.037Z" transform="translate(-304.613 -378.623)" fill="#f1ceb5"/>
      <path id="Path_17693" data-name="Path 17693" d="M354.182,412.141c.265,6.434,24.438,16.469,32.2,14.959,9.108-1.747,9.69-25.444,10.3-28.78-1.059-2.145-3.68-1.615-5.428-1.88a58.964,58.964,0,0,0-5.825,19.037C382.459,414.6,353.308,392.442,354.182,412.141Z" transform="translate(-327.116 -371.092)" fill="#2e7d32"/>
      <path id="Path_17694" data-name="Path 17694" d="M364.243,399.85c-.344,2.065-.794,4.263-.927,5.745a6.25,6.25,0,0,1,2.648,2.648s4.051,8.976,1.112,9.823c-3.919,1.165-17.766-5.957-16.813-7.255,3.151-4.263-.874-15.542-.874-15.542Z" transform="translate(-334.98 -373.02)" fill="#f1ceb5"/>
      <path id="Path_17695" data-name="Path 17695" d="M374.446,462.4a2.224,2.224,0,0,1-2.012,2.118,10.935,10.935,0,0,1-6.513-1.191,15.676,15.676,0,0,0-4.21-2.277c-1.456-.291-7.069-.662-8.579-4.448S361,454.14,361,454.14Z" transform="translate(-329.085 -276.392)" fill="#424242"/>
      <path id="Path_17696" data-name="Path 17696" d="M354.09,452.35c-1.033,2.648-2.065,5.851.821,8.128s5.163,1.906,8.1,2.912,6.831,5.11,10.591,2.648c2.648-1.827-1.589-5.56-4.9-8.79C366.19,454.839,354.09,452.35,354.09,452.35Z" transform="translate(-328.983 -278.971)" fill="#616161"/>
      <path id="Path_17697" data-name="Path 17697" d="M367.4,456.906c3.23,2.806,6.963,6.434,5.3,8.367-3.707,2.039-7.943-3.892-10.8-4.872s-4.58-.927-7.043-3.654c-1.8-2.012-.98-3.839,0-4.157A16.759,16.759,0,0,1,367.4,456.906Z" transform="translate(-327.734 -278.656)" fill="#757575"/>
      <path id="Path_17698" data-name="Path 17698" d="M359.773,457.15a.159.159,0,0,0,.159,0,1.694,1.694,0,0,1,1.774-.98h.185c.027,0,0-.185-.132-.185a1.986,1.986,0,0,0-2.118,1.138.185.185,0,0,0,0,.212Z" transform="translate(-318.144 -273.022)" fill="#bdbdbd"/>
      <path id="Path_17699" data-name="Path 17699" d="M359.306,456.726a.133.133,0,0,0,.159,0,1.694,1.694,0,0,1,1.774-.953.159.159,0,0,0,.185,0s0-.186-.132-.186a1.959,1.959,0,0,0-2.118,1.139.132.132,0,0,0,0,.185Z" transform="translate(-318.922 -273.683)" fill="#bdbdbd"/>
      <path id="Path_17700" data-name="Path 17700" d="M358.964,456.395a.132.132,0,0,0,.132,0,1.589,1.589,0,0,1,1.774-.953s.159,0,.185-.132,0-.159-.132-.185a2.012,2.012,0,0,0-2.118,1.138.159.159,0,0,0,0,.212Z" transform="translate(-319.533 -274.438)" fill="#bdbdbd"/>
      <path id="Path_17701" data-name="Path 17701" d="M358.416,455.93a.186.186,0,0,0,.159,0,1.642,1.642,0,0,1,1.747-.98h.185v-.185a1.986,1.986,0,0,0-2.118,1.138v.212Z" transform="translate(-320.151 -275.032)" fill="#bdbdbd"/>
      <path id="Path_17702" data-name="Path 17702" d="M358.06,455.763a.132.132,0,0,0,.132,0,1.668,1.668,0,0,1,1.589-1.085c.212,0,.291,0,.291-.132a.158.158,0,0,0-.132-.159,1.959,1.959,0,0,0-2.039,1.271.185.185,0,0,0,0,.212Z" transform="translate(-321.012 -275.633)" fill="#bdbdbd"/>
      <path id="Path_17703" data-name="Path 17703" d="M357.678,455.473a.132.132,0,0,0,.159,0,1.615,1.615,0,0,1,1.668-1.112s.185,0,.185-.133a.185.185,0,0,0-.132-.185,1.986,1.986,0,0,0-2.012,1.324.159.159,0,0,0,0,.212Z" transform="translate(-321.609 -276.19)" fill="#bdbdbd"/>
      <path id="Path_17704" data-name="Path 17704" d="M367.617,465.36a2.224,2.224,0,0,1-2.012,2.118,10.935,10.935,0,0,1-6.513-1.192,15.678,15.678,0,0,0-4.21-2.277c-1.456-.291-7.069-.662-8.578-4.448s7.731-2.409,7.731-2.409Z" transform="translate(-340.34 -271.462)" fill="#424242"/>
      <path id="Path_17705" data-name="Path 17705" d="M347.26,455.33c-1.033,2.648-2.065,5.851.821,8.128s5.163,1.906,8.1,2.912,6.831,5.11,10.591,2.648c2.648-1.827-1.589-5.56-4.9-8.79C359.386,457.819,347.26,455.33,347.26,455.33Z" transform="translate(-340.237 -274.061)" fill="#616161"/>
      <path id="Path_17706" data-name="Path 17706" d="M360.572,459.886c3.23,2.806,6.963,6.434,5.3,8.367-3.707,2.039-7.943-3.892-10.8-4.872s-4.58-.927-7.043-3.654c-1.8-2.012-.98-3.839,0-4.157a16.759,16.759,0,0,1,12.55,4.316Z" transform="translate(-338.987 -273.745)" fill="#757575"/>
      <path id="Path_17707" data-name="Path 17707" d="M352.943,460.132a.159.159,0,0,0,.159,0,1.668,1.668,0,0,1,1.774-.98h.185c.027,0,0-.185-.132-.185a1.959,1.959,0,0,0-2.118,1.138.185.185,0,0,0,0,.212Z" transform="translate(-329.398 -268.114)" fill="#bdbdbd"/>
      <path id="Path_17708" data-name="Path 17708" d="M352.476,459.726a.132.132,0,0,0,.159,0,1.668,1.668,0,0,1,1.774-.953.159.159,0,0,0,.186,0s0-.186-.132-.186a1.959,1.959,0,0,0-2.118,1.138.132.132,0,0,0,0,.185Z" transform="translate(-330.175 -268.74)" fill="#bdbdbd"/>
      <path id="Path_17709" data-name="Path 17709" d="M352.124,459.376a.132.132,0,0,0,.132,0,1.642,1.642,0,0,1,1.774-.953s.159,0,.185-.132a.212.212,0,0,0-.132-.185,1.985,1.985,0,0,0-2.118,1.138.159.159,0,0,0,0,.212Z" transform="translate(-330.803 -269.529)" fill="#bdbdbd"/>
      <path id="Path_17710" data-name="Path 17710" d="M351.586,458.91a.185.185,0,0,0,.159,0,1.642,1.642,0,0,1,1.747-.98h.185v-.185a1.986,1.986,0,0,0-2.118,1.138v.185Z" transform="translate(-331.404 -270.122)" fill="#bdbdbd"/>
      <path id="Path_17711" data-name="Path 17711" d="M351.23,458.742a.132.132,0,0,0,.132,0,1.668,1.668,0,0,1,1.589-1.085c.212,0,.291,0,.291-.132a.159.159,0,0,0-.132-.159,1.986,1.986,0,0,0-2.039,1.271.185.185,0,0,0,0,.212Z" transform="translate(-332.266 -270.721)" fill="#bdbdbd"/>
      <path id="Path_17712" data-name="Path 17712" d="M350.843,458.453a.186.186,0,0,0,.159,0,1.641,1.641,0,0,1,1.668-1.112s.185,0,.185-.132a.186.186,0,0,0-.132-.185,1.986,1.986,0,0,0-2.012,1.324.186.186,0,0,0,0,.212Z" transform="translate(-332.859 -271.28)" fill="#bdbdbd"/>
      <path id="Path_17713" data-name="Path 17713" d="M361.329,419.66l8.42,15.886-2.277,72.625a3.892,3.892,0,0,1-5.3,3.548l-.953-.344-.847-.291a7.943,7.943,0,0,1-5.3-7.44s-1.112-37.332-1.112-38.126c0-11.65-2.039-45.2-2.039-45.2Z" transform="translate(-330.795 -332.834)" fill="#1976d2"/>
      <path id="Path_17714" data-name="Path 17714" d="M353.93,430.484l2.436,1.112c3.813-8.155,19.434-14.483,21.817-13.238s2.409,8.737,2.277,17.369c0,5.3-2.3,8.843-7.943,11.915a39.706,39.706,0,0,1-9.611,3.707l-2.648,67.727a3.866,3.866,0,0,1-5.163,3.548l-.98-.344-.821-.291a7.943,7.943,0,0,1-5.3-7.413s-1.668-40.218-1.668-41.2c-.132-10.75-.741-43.289-.741-43.289Z" transform="translate(-341.241 -335.238)" fill="#1e88e5"/>
      <path id="Path_17715" data-name="Path 17715" d="M362.146,401.638l.5-1.906a14.668,14.668,0,0,1-12.629-2.092v7.652l5.084,10.935,16.945-1.642-2.913-10.591Z" transform="translate(-333.942 -369.115)" fill="#f1ceb5"/>
      <path id="Path_17716" data-name="Path 17716" d="M364.161,402.613a20.361,20.361,0,0,1-.741,2.33,19.541,19.541,0,0,1-12.179-2.409,43.286,43.286,0,0,0-1.8-7.334l14.721,4.766c-.159.847-.265,1.668-.371,2.462C363.658,402.455,364.161,402.613,364.161,402.613Z" transform="translate(-334.897 -373.135)" fill="#b59b88" opacity="0.3"/>
      <path id="Path_17717" data-name="Path 17717" d="M354.652,388.854c4.66-.741,10.061-1.006,15.886,6.143a7.943,7.943,0,0,1,1.271,4.024c0,.688-.45,1.986-.238,2.648v.318c2.171,3.257-.185,11.729-1.43,12.55-2.912,1.933-18.534.45-21.181-9.849C347.265,397.777,349.913,389.6,354.652,388.854Z" transform="translate(-336.536 -384.185)" fill="#f1ceb5"/>
      <path id="Path_17718" data-name="Path 17718" d="M365.272,396.586c-4,2.383-4.448,5.8-5.3,9.081-4.951-8.578-5.56,6.593-9.214,2.648s-5.772-18,3.548-20.546C360.427,386.208,365.272,396.586,365.272,396.586Z" transform="translate(-337.836 -385.642)" fill="#5d4037"/>
      <path id="Path_17719" data-name="Path 17719" d="M372.6,392.913c0,2.648-6.116,9.611-13.45,7.016s-9.876-5.083-10.167-6.54c-.53-2.648,4.528-11.041,15.224-3.362C369.318,393.707,371.356,393.628,372.6,392.913Z" transform="translate(-335.712 -386.866)" fill="#795548"/>
      <path id="Path_17720" data-name="Path 17720" d="M344.081,433.876c.424-15.886,4.13-24.12,4.13-24.12a7.231,7.231,0,0,1,1.324-1.535,12.743,12.743,0,0,1,3.071-2.171c2.039-.821,4.5-1.8,7.069-2.648,1.642,3.389,7.943,6.143,12.735,4.713s.741-7.44-.477-8.552a12.259,12.259,0,0,1,6.831-.185,9.32,9.32,0,0,1,4.792,4.607c2.092,5,2.436,14.059,2.277,20.625s2.436,22.32.344,37.862a4.792,4.792,0,0,1-3.866,3.813c-5.3,1.4-13.9,3.151-22.187,6.037a14.058,14.058,0,0,1-10.591-1.43,6.01,6.01,0,0,1-3.23-4.316,227.352,227.352,0,0,1-2.224-32.7Z" transform="translate(-343.73 -366.907)" fill="#4caf50"/>
      <path id="Path_17721" data-name="Path 17721" d="M349.34,403.855l1.668-.635c1.642,3.389,7.943,6.143,12.735,4.713s.741-7.44-.477-8.552l2.012-.371a10.326,10.326,0,0,1,2.171,7.2,4.342,4.342,0,0,1-3.124,3.363,10.589,10.589,0,0,1-3.045.424,14.536,14.536,0,0,1-11.941-6.143Z" transform="translate(-335.062 -366.858)" fill="#2e7d32"/>
      <path id="Path_17722" data-name="Path 17722" d="M445.714,467.121l-62.485,36.088L344.07,480.6l62.485-36.088Z" transform="translate(-343.746 -291.889)" fill="#1e2d64"/>
      <path id="Path_17723" data-name="Path 17723" d="M383.229,491.1,344.07,468.492V458.14l39.185,22.611Z" transform="translate(-343.746 -269.432)" fill="#4e5381"/>
      <path id="Path_17724" data-name="Path 17724" d="M421.345,463.4,358.86,499.49V489.138l62.485-36.088Z" transform="translate(-319.376 -277.818)" fill="#363b67"/>
      <path id="Path_17725" data-name="Path 17725" d="M398.273,411.65,348.02,440.668,374.735,456.1l50.253-29.018Z" transform="translate(-337.237 -346.031)" fill="#4e5381"/>
      <path id="Path_17726" data-name="Path 17726" d="M366.22,409.11v8.023l24.65,14.509.053-8.261Z" transform="translate(-307.25 -350.216)" fill="#363b67"/>
      <path id="Path_17727" data-name="Path 17727" d="M401.452,520.834l-35.717,20.6-7.7-97.381,51.126-29.521Z" transform="translate(-320.744 -341.286)" fill="#363b67"/>
      <path id="Path_17728" data-name="Path 17728" d="M394.764,503.106l-28.833,16.627L360,443.427l40.906-23.617Zm-27.3,13.847,25.788-14.88L399,422.643l-37.306,21.526Z" transform="translate(-317.498 -332.587)" fill="#fff"/>
      <path id="Path_17729" data-name="Path 17729" d="M355.475,517.141l27.165,15.674-7.7-97.381L347.77,419.76Z" transform="translate(-337.649 -332.669)" fill="#4e5381"/>
      <path id="Path_17730" data-name="Path 17730" d="M398.9,408.61l-2.277,1.324,24.7,14.271L374.75,451.079l-24.729-14.271-2.251,1.324,27.165,15.674,51.126-29.521Z" transform="translate(-337.649 -351.04)" fill="#fff"/>
      <path id="Path_17731" data-name="Path 17731" d="M371.09,421.6c1.033,1.43,1.8,2.462,1.4,3.336s-2.462,2.039-7.943-.847h-.185a13.9,13.9,0,0,0-4.475-1.218c-2.383.159-4.66-3.416-4.66-3.416a23.829,23.829,0,0,1,9.187-.662A12.469,12.469,0,0,1,371.09,421.6Z" transform="translate(-325.358 -334.559)" fill="#f1ceb5"/>
      <path id="Path_17732" data-name="Path 17732" d="M349.117,403.989c-5.878,2.648-7.069,29.521-1.88,35.479s25.55,10.591,28.886,9.9a8.182,8.182,0,0,0,2.171-6.249c-3.945-2.3-20.334-5.825-20.625-8.9S367.068,395.834,349.117,403.989Z" transform="translate(-343.948 -360.663)" fill="#2e7d32"/>
    </g>
    <g id="Group_8026" data-name="Group 8026" transform="translate(1151.869 326.907)">
      <path id="Path_17068" data-name="Path 17068" d="M432.008,459.886,429,458.155V372.93l3.008,1.73Z" transform="translate(-309.28 -327.765)" fill="#cd853e"/>
      <path id="Path_17069" data-name="Path 17069" d="M430.861,458.155l-2.981,1.73V374.66l2.981-1.73Z" transform="translate(-305.153 -327.765)" fill="#ad6420"/>
      <path id="Path_17070" data-name="Path 17070" d="M427.88,410.653v-3.46l30.582-17.673v3.487Z" transform="translate(-332.754 -300.198)" fill="#ad6420"/>
      <path id="Path_17071" data-name="Path 17071" d="M427.88,404.656v-5.722l30.582-17.673v5.749Z" transform="translate(-332.754 -313.923)" fill="#ad6420"/>
      <path id="Path_17072" data-name="Path 17072" d="M427.88,396.326V390.6l30.582-17.673v5.749Z" transform="translate(-332.754 -327.765)" fill="#ad6420"/>
      <path id="Path_17073" data-name="Path 17073" d="M456.6,381.26l3.008,1.757-27.6,15.916L429,397.2Z" transform="translate(-336.881 -313.923)" fill="#f8ba70"/>
      <path id="Path_17074" data-name="Path 17074" d="M456.6,389.52l3.008,1.757-27.6,15.917L429,405.463Z" transform="translate(-336.881 -300.198)" fill="#f8ba70"/>
      <path id="Path_17075" data-name="Path 17075" d="M441.248,464.119l-3.008,1.73v-85.2l3.008-1.73Z" transform="translate(-343.114 -317.811)" fill="#ad6420"/>
      <path id="Path_17076" data-name="Path 17076" d="M442.378,465.849l-3.008-1.73v-85.2l3.008,1.73Z" transform="translate(-347.251 -317.811)" fill="#cd853e"/>
      <path id="Path_17077" data-name="Path 17077" d="M458.489,372.28l2.981,1.73-30.582,17.673-3.008-1.73Z" transform="translate(-335.761 -328.845)" fill="#f8ba70"/>
      <path id="Path_17078" data-name="Path 17078" d="M420.518,436.8l-3.008-1.757V397.46l3.008,1.73Z" transform="translate(-267.208 -287.005)" fill="#cd853e"/>
      <path id="Path_17079" data-name="Path 17079" d="M419.388,435.042,416.38,436.8V399.19l3.008-1.73Z" transform="translate(-263.071 -287.005)" fill="#ad6420"/>
      <path id="Path_17080" data-name="Path 17080" d="M429.758,441.049l-3.008,1.73V405.2l3.008-1.757Z" transform="translate(-301.042 -277.068)" fill="#ad6420"/>
      <path id="Path_17081" data-name="Path 17081" d="M430.861,442.779l-2.981-1.73V403.44l2.981,1.757Z" transform="translate(-305.153 -277.068)" fill="#cd853e"/>
      <path id="Path_17082" data-name="Path 17082" d="M458.462,412.507v3.46L427.88,398.32v-3.46Z" transform="translate(-332.754 -291.325)" fill="#039be5"/>
      <path id="Path_17083" data-name="Path 17083" d="M446.989,398.32,416.38,415.967v-3.46l30.609-17.647Z" transform="translate(-290.672 -291.325)" fill="#0277bd"/>
      <path id="Path_17084" data-name="Path 17084" d="M477.571,405.893,446.962,423.54,416.38,405.893l30.582-17.673Z" transform="translate(-321.254 -302.358)" fill="#29b6f6"/>
      <path id="Path_17085" data-name="Path 17085" d="M427.88,399.62v-3.46l30.582,17.647v3.487Z" transform="translate(-332.754 -289.165)" fill="#cd853e"/>
      <path id="Path_17086" data-name="Path 17086" d="M446.989,399.62v-3.46L416.38,413.807v3.487Z" transform="translate(-290.672 -289.165)" fill="#ad6420"/>
      <path id="Path_17087" data-name="Path 17087" d="M440.338,370.022c-.319,1.943-.532,3.806-.665,5.323a4.87,4.87,0,0,1,2.422,2.662s3.806,8.491,1.038,9.289c-3.673,1.091-16.742-5.616-15.837-6.84,2.954-4.019-.825-14.666-.825-14.666Z" transform="translate(-314.683 -339.629)" fill="#f1ceb5"/>
      <path id="Path_17088" data-name="Path 17088" d="M424.313,419.442a35.481,35.481,0,0,0,16.342-4.472c5.323-2.875,7.506-6.2,7.586-11.206,0-8.145.373-15.171-2.156-16.4s-21.08,6.6-21.293,15.7S424.313,419.442,424.313,419.442Z" transform="translate(-313.057 -303.983)" fill="#424242"/>
      <path id="Path_17089" data-name="Path 17089" d="M436.5,371.567v-1.118A14.506,14.506,0,0,1,424.76,368v7.24l4.791,10.3,15.97-1.57-2.662-9.9Z" transform="translate(-311.508 -335.957)" fill="#f1ceb5"/>
      <path id="Path_17090" data-name="Path 17090" d="M423.665,401.892c.4-14.852,1.757-19.909,3.646-21.772a25.312,25.312,0,0,1,10.647-6.76c1.517,3.167,7.639,5.643,12.137,4.312s.692-6.947-.453-7.985a11.393,11.393,0,0,1,6.388-.186,10.459,10.459,0,0,1,4.711,3.46c1.171,1.358,2.049,14,1.916,20.122a302.454,302.454,0,0,1-1.916,35.426c-.239,1.863-1.97,2.662-3.62,3.594a121.083,121.083,0,0,1-18.631,8.2,13.1,13.1,0,0,1-9.848-1.331c-1.57-.8-4.232-1.357-4.525-3.088C422.681,427.79,423.506,408.253,423.665,401.892Z" transform="translate(-324.733 -334.076)" fill="#616161"/>
      <path id="Path_17091" data-name="Path 17091" d="M441.355,372.693a8.544,8.544,0,0,1-.24,2.076,18.632,18.632,0,0,1-11.551-2.129,41.548,41.548,0,0,0-1.7-6.92l13.867,4.418c-.133.8-.24,1.6-.346,2.342Z" transform="translate(-315.966 -339.745)" fill="#b59b88" opacity="0.3"/>
      <path id="Path_17092" data-name="Path 17092" d="M431.355,359.8a13.973,13.973,0,0,1,14.932,5.8,7.665,7.665,0,0,1,1.2,3.806,11.474,11.474,0,0,0-.24,2.529v.293c2.023,3.088-.213,11.072-1.384,11.844-2.662,1.81-17.38.426-19.856-9.289C424.408,368.131,426.937,360.519,431.355,359.8Z" transform="translate(-316.08 -350.247)" fill="#f1ceb5"/>
      <path id="Path_17093" data-name="Path 17093" d="M444.924,367.113c-3.753,2.262-4.205,5.483-4.9,8.57-4.658-7.985-5.323,6.228-8.677,2.449s-5.323-16.981,3.354-19.35C440.373,357.238,444.924,367.113,444.924,367.113Z" transform="translate(-320.866 -351.545)" fill="#5d4037"/>
      <path id="Path_17094" data-name="Path 17094" d="M447.438,363.553c0,2.662-5.749,9.076-12.7,6.627s-9.289-4.791-9.555-6.175c-.506-2.475,4.259-10.407,14.346-3.167C444.35,364.431,446.24,364.351,447.438,363.553Z" transform="translate(-314.463 -352.802)" fill="#795548"/>
      <path id="Path_17095" data-name="Path 17095" d="M439.748,370s-3.646,3.939-13.308,2.5l14.133,19.536,1.544-11.019Z" transform="translate(-312.576 -332.633)" fill="#f5f5f5"/>
      <path id="Path_17096" data-name="Path 17096" d="M427.05,370.87s1.57,4.871,2.928,9.848c.719,2.449,1.384,4.924,1.783,6.814s.612,3.141.612,3.141-.16-1.278-.532-3.167-.985-4.365-1.677-6.867C428.727,375.714,427.05,370.87,427.05,370.87Z" transform="translate(-304.456 -331.188)" fill="#e0e0e0"/>
      <path id="Path_17097" data-name="Path 17097" d="M427.911,374.516a1.863,1.863,0,0,0,.639.8,2.05,2.05,0,0,0,1.917.346c1.2-.559.639-2.875.639-2.875l-2.662-1.916Z" transform="translate(-305.609 -331.188)" fill="#0288d1"/>
      <path id="Path_17098" data-name="Path 17098" d="M429.083,384.38l-2.1-11.126,2.662-1.144,2.5,11.179v3.141c0,.8-.133,2.183-.133,2.183Z" transform="translate(-304.04 -329.127)" fill="#0277bd"/>
      <path id="Path_17099" data-name="Path 17099" d="M428.686,393.963s1.411-17.141-2.928-23.955V368.89l2.5.532L431.48,374l-1.2,3.407,1.7.692S433.157,388.107,428.686,393.963Z" transform="translate(-300.768 -334.478)" fill="#424242"/>
      <path id="Path_17100" data-name="Path 17100" d="M430.6,369.93l-3.513,3.433,5.323,7.293h2.662l.24,4.205a26,26,0,0,0,9.795,7.479S432.706,374,430.6,369.93Z" transform="translate(-317.298 -332.75)" fill="#424242"/>
      <path id="Path_17101" data-name="Path 17101" d="M428.99,370.46l8.624,1.091-.346,4.232-6.122-1.836Z" transform="translate(-314.86 -331.869)" fill="#fff"/>
      <path id="Path_17102" data-name="Path 17102" d="M430.3,369.67l-2.662,3.194,3.274,3.247a30.848,30.848,0,0,0,.346-4.339A14.226,14.226,0,0,0,430.3,369.67Z" transform="translate(-304.912 -333.181)" fill="#fff"/>
      <path id="Path_17103" data-name="Path 17103" d="M429.018,378.31a18.107,18.107,0,0,0,.133,1.836c.133,1.171.186,2.821.293,4.791a132.094,132.094,0,0,1-.266,14.586,205.734,205.734,0,0,1-2.422,21.107s.585-2.662,1.224-6.548,1.278-9.209,1.624-14.533a135.01,135.01,0,0,0,0-14.612c-.133-2-.293-3.646-.452-4.791Z" transform="translate(-301.1 -318.825)" fill="#424242"/>
      <path id="Path_17104" data-name="Path 17104" d="M466.618,469.306l-3.008-1.73V382.35l3.008,1.73Z" transform="translate(-436.009 -312.112)" fill="#cd853e"/>
      <path id="Path_17105" data-name="Path 17105" d="M465.471,467.575l-2.981,1.73V384.08l2.981-1.73Z" transform="translate(-431.881 -312.112)" fill="#ad6420"/>
      <path id="Path_17106" data-name="Path 17106" d="M462.49,420.073v-3.46l30.582-17.673v3.487Z" transform="translate(-459.482 -284.546)" fill="#ad6420"/>
      <path id="Path_17107" data-name="Path 17107" d="M462.49,414.076v-5.722l30.582-17.673v5.749Z" transform="translate(-459.482 -298.271)" fill="#ad6420"/>
      <path id="Path_17108" data-name="Path 17108" d="M462.49,405.746v-5.723l30.582-17.673V388.1Z" transform="translate(-459.482 -312.112)" fill="#ad6420"/>
      <path id="Path_17109" data-name="Path 17109" d="M491.211,390.68l3.008,1.73-27.6,15.943-3.008-1.73Z" transform="translate(-463.61 -298.271)" fill="#f8ba70"/>
      <path id="Path_17110" data-name="Path 17110" d="M491.211,398.94l3.008,1.757-27.6,15.916-3.008-1.73Z" transform="translate(-463.61 -284.546)" fill="#f8ba70"/>
      <path id="Path_17111" data-name="Path 17111" d="M475.858,473.539l-3.008,1.73v-85.2l3.008-1.73Z" transform="translate(-469.842 -302.159)" fill="#ad6420"/>
      <path id="Path_17112" data-name="Path 17112" d="M476.988,475.269l-3.008-1.73v-85.2l3.008,1.73Z" transform="translate(-473.98 -302.159)" fill="#cd853e"/>
      <path id="Path_17113" data-name="Path 17113" d="M493.1,381.7l2.981,1.73L465.5,401.1l-3.008-1.73Z" transform="translate(-462.49 -313.192)" fill="#f8ba70"/>
      <path id="Path_17114" data-name="Path 17114" d="M455.128,446.219l-3.008-1.757V406.88l3.008,1.73Z" transform="translate(-393.937 -271.352)" fill="#cd853e"/>
      <path id="Path_17115" data-name="Path 17115" d="M454,444.462l-3.008,1.757V408.61L454,406.88Z" transform="translate(-389.799 -271.352)" fill="#ad6420"/>
      <path id="Path_17116" data-name="Path 17116" d="M464.368,450.452l-3.008,1.73V414.6l3.008-1.73Z" transform="translate(-427.77 -261.399)" fill="#ad6420"/>
      <path id="Path_17117" data-name="Path 17117" d="M465.5,452.182l-3.008-1.73V412.87l3.008,1.73Z" transform="translate(-431.908 -261.399)" fill="#cd853e"/>
      <path id="Path_17118" data-name="Path 17118" d="M493.072,421.927v3.46L462.49,407.74v-3.46Z" transform="translate(-459.482 -275.672)" fill="#039be5"/>
      <path id="Path_17119" data-name="Path 17119" d="M481.582,407.74,451,425.387v-3.46l30.582-17.647Z" transform="translate(-417.41 -275.672)" fill="#0277bd"/>
      <path id="Path_17120" data-name="Path 17120" d="M512.164,415.313,481.582,432.96,451,415.313l30.582-17.673Z" transform="translate(-447.992 -286.706)" fill="#29b6f6"/>
      <path id="Path_17121" data-name="Path 17121" d="M462.49,409.04v-3.46l30.582,17.647v3.487Z" transform="translate(-459.482 -273.512)" fill="#cd853e"/>
      <path id="Path_17122" data-name="Path 17122" d="M481.582,409.04v-3.46L451,423.227v3.487Z" transform="translate(-417.41 -273.512)" fill="#ad6420"/>
      <path id="Path_17123" data-name="Path 17123" d="M464.615,369.164c-.346,2.1-.559,4.1-.719,5.616a5.323,5.323,0,0,1,2.662,2.821s4.126,9.129,1.145,10.008c-3.992,1.171-18.1-6.069-17.114-7.4,3.194-4.312-.9-15.81-.9-15.81Z" transform="translate(-401.109 -341.938)" fill="#f1ceb5"/>
      <path id="Path_17124" data-name="Path 17124" d="M467.995,432.145a2.209,2.209,0,0,1-2.023,2.156,11.285,11.285,0,0,1-6.627-1.224,15.387,15.387,0,0,0-4.285-2.316c-1.491-.293-7.186-.665-8.73-4.525s7.985-2.475,7.985-2.475Z" transform="translate(-390.941 -243.704)" fill="#424242"/>
      <path id="Path_17125" data-name="Path 17125" d="M447.264,421.93c-1.065,2.662-2.129,5.962.825,8.251s5.323,1.943,8.251,2.981,6.947,5.323,10.646,2.662c2.662-1.836-1.624-5.643-5-8.943C459.587,424.459,447.264,421.93,447.264,421.93Z" transform="translate(-390.784 -246.345)" fill="#616161"/>
      <path id="Path_17126" data-name="Path 17126" d="M459.875,426.56c3.3,2.848,7.107,6.548,5.483,8.491-3.78,2.076-7.985-3.939-10.993-4.924s-4.658-.958-7.16-3.726c-1.837-2.049-.985-3.913,0-4.232a16.955,16.955,0,0,1,12.669,4.392Z" transform="translate(-388.597 -246.024)" fill="#757575"/>
      <path id="Path_17127" data-name="Path 17127" d="M447.034,426.812a.133.133,0,0,0,.133,0,1.624,1.624,0,0,1,1.81-.958.16.16,0,0,0,0-.319,2.049,2.049,0,0,0-2.156,1.144.16.16,0,0,0,0,.213Z" transform="translate(-373.733 -240.394)" fill="#fff"/>
      <path id="Path_17128" data-name="Path 17128" d="M447.383,426.448a.133.133,0,0,0,.133,0,1.677,1.677,0,0,1,1.81-.985s.186,0,.186-.133,0-.16-.133-.186a2,2,0,0,0-2.129,1.171v.213Z" transform="translate(-375.36 -241.042)" fill="#fff"/>
      <path id="Path_17129" data-name="Path 17129" d="M447.818,426.039a.133.133,0,0,0,.133,0,1.65,1.65,0,0,1,1.81-.985.213.213,0,0,0,.186-.133s0-.16-.133-.186a2.023,2.023,0,0,0-2.156,1.171.133.133,0,0,0,0,.186Z" transform="translate(-376.779 -241.724)" fill="#fff"/>
      <path id="Path_17130" data-name="Path 17130" d="M448.253,425.546a.133.133,0,0,0,.133,0,1.7,1.7,0,0,1,1.81-.985.159.159,0,0,0,.186,0s0-.16-.133-.186a2.023,2.023,0,0,0-2.156,1.171.187.187,0,0,0,0,.213Z" transform="translate(-378.385 -242.322)" fill="#fff"/>
      <path id="Path_17131" data-name="Path 17131" d="M448.753,425.4a.133.133,0,0,0,.133,0,1.677,1.677,0,0,1,1.73-1.091s.186,0,.186-.133,0-.186-.133-.186a2.023,2.023,0,0,0-2.076,1.3.186.186,0,0,0,0,.213Z" transform="translate(-380.136 -242.943)" fill="#fff"/>
      <path id="Path_17132" data-name="Path 17132" d="M449.13,425.106a.213.213,0,0,0,.16,0,1.7,1.7,0,0,1,1.7-1.144.159.159,0,0,0,.159-.133s0-.16-.133-.186A2.049,2.049,0,0,0,448.97,425a.16.16,0,0,0,0,.186Z" transform="translate(-381.498 -243.505)" fill="#fff"/>
      <path id="Path_17133" data-name="Path 17133" d="M472.545,434.485a2.209,2.209,0,0,1-2.023,2.129,10.966,10.966,0,0,1-6.628-1.2,16.161,16.161,0,0,0-4.285-2.316c-1.491-.293-7.186-.665-8.73-4.525s7.985-2.475,7.985-2.475Z" transform="translate(-407.601 -239.816)" fill="#424242"/>
      <path id="Path_17134" data-name="Path 17134" d="M451.823,424.27c-1.065,2.662-2.129,5.962.825,8.251s5.323,1.943,8.224,2.954,6.973,5.323,10.646,2.662c2.662-1.863-1.624-5.669-4.977-8.943C464.147,426.8,451.823,424.27,451.823,424.27Z" transform="translate(-407.454 -242.456)" fill="#616161"/>
      <path id="Path_17135" data-name="Path 17135" d="M464.443,428.9c3.3,2.848,7.08,6.548,5.456,8.491-3.753,2.076-7.985-3.939-10.966-4.951s-4.684-.932-7.16-3.7c-1.837-2.049-1.011-3.913,0-4.232a17.008,17.008,0,0,1,12.669,4.392Z" transform="translate(-405.275 -242.135)" fill="#757575"/>
      <path id="Path_17136" data-name="Path 17136" d="M451.386,429.2a.187.187,0,0,0,.16,0,1.6,1.6,0,0,1,1.783-.958s.186,0,.186-.133a.16.16,0,0,0,0-.186,1.97,1.97,0,0,0-2.156,1.144.16.16,0,0,0,0,.213Z" transform="translate(-390.222 -236.445)" fill="#fff"/>
      <path id="Path_17137" data-name="Path 17137" d="M452.061,428.829a.133.133,0,0,0,.133,0,1.624,1.624,0,0,1,1.81-.985.16.16,0,1,0,0-.319,2.023,2.023,0,0,0-2.156,1.171.133.133,0,0,0,0,.186Z" transform="translate(-392.148 -237.088)" fill="#fff"/>
      <path id="Path_17138" data-name="Path 17138" d="M452.461,428.363a.133.133,0,0,0,.133,0,1.623,1.623,0,0,1,1.81-.958.16.16,0,1,0,0-.319,2.022,2.022,0,0,0-2.156,1.171.133.133,0,0,0,0,.186Z" transform="translate(-393.612 -237.819)" fill="#fff"/>
      <path id="Path_17139" data-name="Path 17139" d="M452.84,427.969a.16.16,0,0,0,.16,0,1.65,1.65,0,0,1,1.81-.985.16.16,0,1,0,0-.319,2.023,2.023,0,0,0-2.156,1.171.186.186,0,0,0,0,.213Z" transform="translate(-395.109 -238.517)" fill="#fff"/>
      <path id="Path_17140" data-name="Path 17140" d="M453.277,427.735a.187.187,0,0,0,.16,0,1.677,1.677,0,0,1,1.73-1.091.186.186,0,0,0,.186-.16.16.16,0,0,0-.16-.16,2,2,0,0,0-2.049,1.3.186.186,0,0,0,0,.213Z" transform="translate(-396.797 -239.055)" fill="#fff"/>
      <path id="Path_17141" data-name="Path 17141" d="M453.69,427.421a.133.133,0,0,0,.133,0,1.677,1.677,0,0,1,1.7-1.118s.186,0,.186-.133,0-.186-.133-.186a2.022,2.022,0,0,0-2.049,1.331.16.16,0,0,0,0,.213Z" transform="translate(-398.169 -239.618)" fill="#fff"/>
      <path id="Path_17142" data-name="Path 17142" d="M450.73,389.806s.958,33.377.932,45.248c0,.8-.692,38.727-.692,38.727a7.985,7.985,0,0,0,5.323,7.559l.852.293,2.928-92.492Z" transform="translate(-395.182 -300.829)" fill="#fb8c00"/>
      <path id="Path_17143" data-name="Path 17143" d="M450.378,389.14l-2.928,92.492.985.346a3.939,3.939,0,0,0,5.323-3.62l5.323-73.062Z" transform="translate(-385.461 -300.829)" fill="#ffa726"/>
      <path id="Path_17144" data-name="Path 17144" d="M456.28,392.17l5.776,83.362a7.985,7.985,0,0,0,5.323,7.532l.852.319L464.9,392.7Z" transform="translate(-418.112 -295.795)" fill="#fb8c00"/>
      <path id="Path_17145" data-name="Path 17145" d="M453.88,392.37l3.327,90.682.985.346a3.966,3.966,0,0,0,5.323-3.62l.08-83.07Z" transform="translate(-407.089 -295.462)" fill="#ffa726"/>
      <path id="Path_17146" data-name="Path 17146" d="M447.36,422.375a38.752,38.752,0,0,0,17.647-4.817c5.829-3.114,7.985-6.707,8.171-12.11.133-8.783.426-16.369-2.316-17.673s-22.757,7.107-23.076,16.928S447.36,422.375,447.36,422.375Z" transform="translate(-399.397 -303.322)" fill="#ffa726"/>
      <path id="Path_17147" data-name="Path 17147" d="M446.317,403.357C446.742,387.387,450.5,379,450.5,379a7.986,7.986,0,0,1,1.331-1.57,12,12,0,0,1,3.114-2.156c2.049-.852,4.525-1.837,7.133-2.821,1.677,3.434,7.985,6.175,12.882,4.764s.745-7.506-.506-8.624a13.308,13.308,0,0,1,5.669-.559,31.543,31.543,0,0,1,7.187,7.16s1.331,12.031,1.2,18.631a338.616,338.616,0,0,1-2.661,36.251c-.266,2-1.251,2.076-3.008,3.088a135.6,135.6,0,0,1-20.2,8.863,14.027,14.027,0,0,1-10.647-1.464c-1.7-.852-1.757-6.6-2.076-8.464A187.152,187.152,0,0,1,446.317,403.357Z" transform="translate(-411.875 -336.047)" fill="#ffa726"/>
      <path id="Path_17148" data-name="Path 17148" d="M449.917,373.057l1.677-.665c1.677,3.434,7.985,6.2,12.882,4.791s.745-7.532-.506-8.65c.719-.16,1.384-.266,2.023-.373a10.327,10.327,0,0,1,2.209,7.266,4.445,4.445,0,0,1-3.3,3.274,10.643,10.643,0,0,1-3.061.426,14.691,14.691,0,0,1-11.924-6.069Z" transform="translate(-401.183 -335.691)" fill="#fb8c00"/>
      <path id="Path_17149" data-name="Path 17149" d="M446.67,399.857a.453.453,0,0,0,.453-.319,8.41,8.41,0,0,1,4.338-4.046c.985-.479,2.449.24,3.114,0,1.757-.692,1.836-1.783,1.863-1.783a18.047,18.047,0,0,1,5.8,0,.426.426,0,0,0,.639,0,.479.479,0,0,0,0-.665,15.011,15.011,0,0,0-6.361,0c-.852.16-.266,1.091-2.183,1.81-.692.266-2.183-.426-3.194,0a8.862,8.862,0,0,0-4.817,4.578.452.452,0,0,0,.319.586Z" transform="translate(-386.331 -294.911)" fill="#616161"/>
      <path id="Path_17150" data-name="Path 17150" d="M450.789,406.63c-1.3,1.224-2.236,2.662-3.167,2.449s1.251-3.274,1.544-4.125,1.118-3.114.293-3.087a.5.5,0,0,0-.213,0,1.568,1.568,0,0,0-.453.479c-.452.719-.852,1.837-1.65,1.81s-.186-1.6.24-3.407v-.213a13.312,13.312,0,0,0,.639-4.658c-.479-2.4,2.822-5.137,2.822-5.137a23.582,23.582,0,0,1,1.89,9.156A10.647,10.647,0,0,1,450.789,406.63Z" transform="translate(-377.275 -298.171)" fill="#f1ceb5"/>
      <path id="Path_17151" data-name="Path 17151" d="M458.814,401.316c.852.346,4.551.559,4.179,1.464s-2.129.665-3.913.852a10.647,10.647,0,0,1-6.388-2.662,23.956,23.956,0,0,1-5.722-7.373s4.232-.772,5.749,1.118a11.1,11.1,0,0,0,3.407,2.236c2,.985,3.939,1.81,3.54,2.369s-2.316,0-3.061,0l-.24.133C455.727,400.252,457.989,401,458.814,401.316Z" transform="translate(-388.122 -293.682)" fill="#f1ceb5"/>
      <path id="Path_17152" data-name="Path 17152" d="M450.144,395.718a3.7,3.7,0,0,0,1.278-.213,2.821,2.821,0,0,0,1.916-2.342.452.452,0,1,0-.9,0,1.944,1.944,0,0,1-1.331,1.517,3.753,3.753,0,0,1-4.019-1.464.433.433,0,1,0-.639.586,4.924,4.924,0,0,0,3.7,1.916Z" transform="translate(-376.736 -294.897)" fill="#616161"/>
      <path id="Path_17153" data-name="Path 17153" d="M454.751,397.649a3.139,3.139,0,0,0,.825-.985,2.662,2.662,0,0,0,0-3.008.434.434,0,0,0-.665.559,1.97,1.97,0,0,1,0,2.023,3.727,3.727,0,0,1-4.019,1.437.453.453,0,0,0-.506.373.479.479,0,0,0,.4.506,4.923,4.923,0,0,0,3.966-.905Z" transform="translate(-390.234 -293.582)" fill="#616161"/>
      <path id="Path_17154" data-name="Path 17154" d="M457.154,370.959c2.369-.4,5.962,1.65,8.171,9.795s1.916,21.746,3.061,25.552,10.779,20.255,11.392,22.677a4.445,4.445,0,0,1-4.5,5.057c-2.662,0-12.882-15.091-16.21-23.13-2.049-4.951-7.985-15.437-8.224-25.392C450.607,379.344,453.934,371.465,457.154,370.959Z" transform="translate(-415.207 -331.117)" fill="#fb8c00"/>
      <path id="Path_17155" data-name="Path 17155" d="M465.836,371.906c0,.825-.186,1.57-.24,2.262a20.228,20.228,0,0,1-12.483-2.289,44.865,44.865,0,0,0-1.863-7.479l14.985,4.764c-.133.878-.266,1.7-.373,2.5C465.862,371.746,465.836,371.826,465.836,371.906Z" transform="translate(-402.729 -341.938)" fill="#b59b88" opacity="0.3"/>
      <path id="Path_17156" data-name="Path 17156" d="M454.956,357.965c4.764-.745,10.247-1.012,16.129,6.255a8.33,8.33,0,0,1,1.278,4.1c0,.692-.452,2.023-.24,2.662v.319c2.209,3.327-.186,11.951-1.464,12.776-2.954,1.97-18.791.452-21.453-10.034C447.45,366.935,450.191,358.657,454.956,357.965Z" transform="translate(-402.655 -353.23)" fill="#f1ceb5"/>
      <path id="Path_17157" data-name="Path 17157" d="M469.751,365.9c-4.072,2.422-4.551,5.909-5.323,9.236-5.031-8.73-5.643,6.734-9.369,2.662s-5.882-18.339,3.593-20.894C464.8,355.258,469.751,365.9,469.751,365.9Z" transform="translate(-407.948 -354.675)" fill="#424242"/>
      <path id="Path_17158" data-name="Path 17158" d="M472.352,362.107c0,2.662-6.228,9.795-13.707,7.133s-10.008-5.164-10.327-6.654c-.532-2.662,4.6-11.232,15.491-3.407C469,362.932,471.074,362.852,472.352,362.107Z" transform="translate(-400.94 -355.961)" fill="#616161"/>
      <path id="Path_17159" data-name="Path 17159" d="M451.989,377.68c-.133,6.361-1.677,16.529-2.662,36.251-.133,2.023-1.251,2.076-3.008,3.087Z" transform="translate(-375.361 -319.872)" fill="#ffa726"/>
      <path id="Path_17160" data-name="Path 17160" d="M448.382,434.813c-3.221-.825-3.034-.692-2.129-9.608a149.836,149.836,0,0,1,3.939-21.107,155.178,155.178,0,0,0,1.144-25.924,19.855,19.855,0,0,0-7.266-10.194c16.9,7.692,14.133,33.8,14.293,37.263S456.527,436.889,448.382,434.813Z" transform="translate(-375.826 -335.99)" fill="#fb8c00"/>
      <path id="Path_17161" data-name="Path 17161" d="M445.21,407v85.279L490.4,518.256V432.978Z" transform="translate(-410.822 -271.153)" fill="#4e5381"/>
      <path id="Path_17162" data-name="Path 17162" d="M527.809,388.07V473.3L395.5,549.711V464.432Z" transform="translate(-315.917 -302.607)" fill="#363b67"/>
      <path id="Path_17163" data-name="Path 17163" d="M395.5,451.23l45.194,25.924L573,400.819V388.07L440.694,464.432,396.4,438.987l-.9.532Z" transform="translate(-361.112 -302.607)" opacity="0.1"/>
      <path id="Path_17164" data-name="Path 17164" d="M446.32,407.58v5.536l49.932,28.692v-5.563Z" transform="translate(-419.624 -270.189)" fill="#363b67"/>
      <path id="Path_17165" data-name="Path 17165" d="M535.566,387.36v5.51L392.61,475.407v-5.563Z" transform="translate(-315.982 -303.787)" fill="#0f1446"/>
      <path id="Path_17166" data-name="Path 17166" d="M535.592,376.56,392.61,459.15l49.932,28.639L585.5,405.306Z" transform="translate(-365.914 -321.733)" fill="#1e2d64"/>
      <path id="Path_17167" data-name="Path 17167" d="M454.811,400.032l-17.966,10.38L411.4,395.72l17.966-10.38Z" transform="translate(-285.239 -307.144)" fill="#fff"/>
      <path id="Path_17168" data-name="Path 17168" d="M435.688,409.1l16.875-9.742L428.795,385.65l-16.875,9.715Zm16.369-9.742-16.369,9.449-23.263-13.441,16.369-9.449Z" transform="translate(-284.375 -306.629)" fill="#29b6f6"/>
      <path id="Path_17169" data-name="Path 17169" d="M425.8,400.9c3.487-3.567-3.54-10.38-5.669-12.084a26.965,26.965,0,0,0-9.715-4.791s.16,4.977,2.662,6.228c1.038.532,3.088,4.977,4.205,6.388.479.612.665-1.437,1.836-.346C421.776,398.722,425.183,401.464,425.8,400.9Z" transform="translate(-254.547 -309.32)" fill="#f1ceb5"/>
      <path id="Path_17170" data-name="Path 17170" d="M419.748,394.309c.133-6.627-.8-20.255-2.049-21.719a10.193,10.193,0,0,0-4.338-3.38,8.677,8.677,0,0,1,5.882,4.339c4.764,6.973,8.97,20.468,11.285,23.688s14,11.5,15.384,13.574a4.471,4.471,0,0,1-2.662,6.281c-2.662.772-14.879-7.106-20.654-13.6-.8-.9-1.837-2.129-2.981-3.567C419.721,397.716,419.721,395.8,419.748,394.309Z" transform="translate(-282.036 -333.946)" fill="#424242"/>
      <path id="Path_17171" data-name="Path 17171" d="M434.611,392.246c-.559,4.951-10.274,3.833-12.935,3.274s-2.262.373-4.205-1.384c0,0-1.7-6.148.878-4.977a48.448,48.448,0,0,0,7.586-.8c.8,0-.692,1.411.9,1.65C430.38,390.516,434.718,391.474,434.611,392.246Z" transform="translate(-279.732 -302.125)" fill="#f1ceb5"/>
      <path id="Path_17172" data-name="Path 17172" d="M424.123,376.777c4.019-6.548,8.81-4.738,12.909,3.114s6.1,20.282,8.837,23.156,15.81,8.7,17.46,10.647a4.472,4.472,0,0,1-1.7,6.574c-2.5,1.118-15.97-4.205-22.677-9.848-4.445-3.806-13.148-10.833-15.73-19.723a22.944,22.944,0,0,1,.9-13.92Z" transform="translate(-324.205 -328.018)" fill="#424242"/>
    </g>
    <g id="Group_8014" data-name="Group 8014" transform="translate(536.812 -2312.084)">
      <g id="Group_8011" data-name="Group 8011" transform="translate(868.001 2813.301)">
        <g id="Group_8010" data-name="Group 8010" transform="translate(0 26.685)">
          <path id="Path_16621" data-name="Path 16621" d="M1078.671,3291.295l37.213-21.484a4.094,4.094,0,0,0,2.066-3.579V3210.9l-45.329,26.17v55.841A12.084,12.084,0,0,0,1078.671,3291.295Z" transform="translate(-1027.292 -3210.904)" fill="#4e5381"/>
          <path id="Path_16622" data-name="Path 16622" d="M970.9,3269.811l37.213,21.484a12.084,12.084,0,0,0,6.051,1.621v-55.841l-45.33-26.17v55.328A4.094,4.094,0,0,0,970.9,3269.811Z" transform="translate(-968.833 -3210.904)" fill="#4e5381"/>
          <path id="Path_16625" data-name="Path 16625" d="M4512.83,2488.517l12.411,7.149a6.1,6.1,0,0,1,3.053,5.278v8.346a2.088,2.088,0,0,1-3.131,1.81l-12.41-7.149a6.1,6.1,0,0,1-3.053-5.277v-8.345A2.082,2.082,0,0,1,4512.83,2488.517Z" transform="translate(-4487.894 -2438.954)" fill="#00aeef"/>
          <path id="XMLID_321_" d="M577,618.271l-9.01-5.224a2.824,2.824,0,0,0-2.877-.151,3.526,3.526,0,0,0-1.514,3.18,7.724,7.724,0,0,0,3.331,6.284l9.01,5.224a3.4,3.4,0,0,0,1.59.454,2.222,2.222,0,0,0,1.211-.3,3.526,3.526,0,0,0,1.514-3.18A7.384,7.384,0,0,0,577,618.271Zm.909,7.8a.967.967,0,0,1-.909-.151l-9.01-5.224a5.9,5.9,0,0,1-2.347-4.618c0-.908.3-1.363.53-1.438a.967.967,0,0,1,.909.151l.606.379a7.369,7.369,0,0,0,3.028,5.224l7.722,4.467A1.638,1.638,0,0,1,577.909,626.07Z" transform="translate(-551.455 -590.419)" fill="#1e2d64"/>
          <path id="Path_16626" data-name="Path 16626" d="M4644.7,2556.673c0-.567.353-.828.782-.583l10.156,5.845a1.876,1.876,0,0,1,.782,1.488c0,.568-.354.828-.782.583l-10.156-5.845A1.9,1.9,0,0,1,4644.7,2556.673Z" transform="translate(-4640.606 -2516.087)" fill="#e1f3ff"/>
          <path id="Path_16627" data-name="Path 16627" d="M4644.7,2608.273c0-.568.353-.828.782-.583l10.156,5.845a1.876,1.876,0,0,1,.782,1.488c0,.568-.354.828-.782.583l-10.156-5.845A1.873,1.873,0,0,1,4644.7,2608.273Z" transform="translate(-4640.606 -2559.771)" fill="#e1f3ff"/>
          <path id="Path_16628" data-name="Path 16628" d="M4644.7,2634.673c0-.567.353-.828.782-.582l6.137,3.543a1.873,1.873,0,0,1,.781,1.488c0,.567-.352.829-.781.583l-6.137-3.544A1.851,1.851,0,0,1,4644.7,2634.673Z" transform="translate(-4640.606 -2582.121)" fill="#00aeef"/>
          <path id="Path_16629" data-name="Path 16629" d="M4680.5,2604.174c0-.568.353-.829.782-.583l4.4,2.531a1.877,1.877,0,0,1,.782,1.488c0,.568-.354.829-.782.583l-4.4-2.531A1.9,1.9,0,0,1,4680.5,2604.174Z" transform="translate(-4670.914 -2556.299)" fill="#e1f3ff"/>
          <path id="Path_16630" data-name="Path 16630" d="M4644.7,2583.074c0-.568.353-.829.782-.584l2.793,1.612a1.876,1.876,0,0,1,.781,1.488c0,.567-.353.828-.781.582l-2.793-1.61A1.874,1.874,0,0,1,4644.7,2583.074Z" transform="translate(-4640.606 -2538.436)" fill="#00aeef"/>
        </g>
        <path id="Path_16623" data-name="Path 16623" d="M970.864,3180.069l36.579,21.485a11.719,11.719,0,0,0,11.894,0l36.58-21.485a4.169,4.169,0,0,0,0-7.158l-36.58-21.485a11.721,11.721,0,0,0-11.894,0l-36.579,21.485A4.169,4.169,0,0,0,970.864,3180.069Z" transform="translate(-968.068 -3149.805)" fill="#1e2d64" stroke="#4e5381" stroke-width="1"/>
      </g>
    </g>
    <g id="Group_8029" data-name="Group 8029" transform="translate(1332.352 -155.776)">
      <path id="Path_16866" data-name="Path 16866" d="M65.53,217.648c17-10.329,21.236-11.827,21.806-11.968,0,0-2.445,5.836-16.521,13.962-2.606-1.5-3.156-.779-3.156-.779Z" transform="translate(51.66 469.442)" fill="#78909c"/>
      <path id="Path_16867" data-name="Path 16867" d="M65.53,217.493c18.449-11.209,21.806-11.813,21.806-11.813s-2.445,5.675-16.521,13.808c-2.606-1.5-3.156-.779-3.156-.779Z" transform="translate(51.66 469.442)" fill="#cfd8dc"/>
      <path id="Path_16868" data-name="Path 16868" d="M63.041,224.23v1.343l-11.148,7a.947.947,0,0,1-.4.121V228.6Z" transform="translate(56.271 463.35)" fill="#424242"/>
      <path id="Path_16869" data-name="Path 16869" d="M46.7,231.949l3.19-1.209v4.09a1.135,1.135,0,0,1-.5-.067l-2.445-1.021c-.2-.081-.3-.215-.289-.343S46.562,232.023,46.7,231.949Z" transform="translate(57.868 461.212)" fill="#616161"/>
      <path id="Path_16870" data-name="Path 16870" d="M46.961,229.667l2.451,1.014a1.068,1.068,0,0,0,.907-.047l11.142-7-2.109-1.216-12.458,6.629C46.578,229.223,46.612,229.525,46.961,229.667Z" transform="translate(57.851 463.945)" fill="#757575"/>
      <path id="Path_16871" data-name="Path 16871" d="M64.021,225.125l.611-.349-.611-.356-.611.356Z" transform="translate(52.356 463.288)" fill="#424242"/>
      <path id="Path_16872" data-name="Path 16872" d="M57.761,228.742l.611-.356-.611-.356-.611.356Z" transform="translate(54.412 462.102)" fill="#424242"/>
      <path id="Path_16873" data-name="Path 16873" d="M51.5,232.355l.611-.356-.611-.349L50.89,232Z" transform="translate(56.468 460.913)" fill="#424242"/>
      <path id="Path_16875" data-name="Path 16875" d="M83.021,203.678l-9.476,5.467-5.4-3.385-.766-.443,9.469-5.467.766.443Z" transform="translate(51.052 471.357)" fill="#ffebcc"/>
      <path id="Path_16876" data-name="Path 16876" d="M66.065,196.476,30.478,217.026l-.578-.336L65.487,196.14Z" transform="translate(63.361 472.575)" fill="#ffa726"/>
      <path id="Path_16877" data-name="Path 16877" d="M34.35,206.075a.531.531,0,0,1,.188-.43l1.484-1.4a1.343,1.343,0,0,1,.571-.289l-.087-.369a1.826,1.826,0,0,0-.819.416l-1.659,1.484a.376.376,0,0,0-.107.195l.154-.04Z" transform="translate(62.041 470.129)" fill="#757575"/>
      <path id="Path_16878" data-name="Path 16878" d="M35.269,207.429l-.564-.06a.463.463,0,0,1-.336-.3,4.365,4.365,0,0,1-.3-.423l-.154.04a1.068,1.068,0,0,0,.074.47.618.618,0,0,0,.484.423l.591.181a1.846,1.846,0,0,0,.9,0l-.081-.336A1.343,1.343,0,0,1,35.269,207.429Z" transform="translate(62.042 469.124)" fill="#616161"/>
      <path id="Path_16879" data-name="Path 16879" d="M38.529,203.929l.591.181a.423.423,0,0,1,.343.322l.275-.5a.329.329,0,0,0-.215-.195l-.8-.175a1.833,1.833,0,0,0-.954,0l.087.369a1.343,1.343,0,0,1,.672,0Z" transform="translate(60.777 470.16)" fill="#616161"/>
      <path id="Path_16880" data-name="Path 16880" d="M39.167,204.644a.463.463,0,0,1-.181.39l-1.511,1.276a1.343,1.343,0,0,1-.625.3l.081.336a1.9,1.9,0,0,0,.873-.423l1.484-1.4a.672.672,0,0,0,.248-.6,1.853,1.853,0,0,0-.1-.39Z" transform="translate(61.079 469.948)" fill="#757575"/>
      <path id="Path_16881" data-name="Path 16881" d="M35,206.355l-.6-.181a.557.557,0,0,1-.242-1.021l1.491-1.383a2.015,2.015,0,0,1,1.766-.416l.6.181a.557.557,0,0,1,.242,1.021l-1.491,1.4A2.015,2.015,0,0,1,35,206.355Zm2.189-2.8a1.39,1.39,0,0,0-1.236.3l-1.491,1.4a.39.39,0,0,0,.175.712l.591.181a1.4,1.4,0,0,0,1.236-.3l1.484-1.4a.383.383,0,0,0-.168-.712Z" transform="translate(62.046 470.225)" fill="#b1b1b1"/>
      <path id="Path_16882" data-name="Path 16882" d="M33.439,211.023a.517.517,0,0,1,0-.463l.866-1.847a1.189,1.189,0,0,1,.423-.477l-.222-.316a1.867,1.867,0,0,0-.611.672l-.994,2.015a.349.349,0,0,0,0,.215l.134-.094Z" transform="translate(62.381 468.707)" fill="#757575"/>
      <path id="Path_16883" data-name="Path 16883" d="M34.431,212.382l-.551.148a.45.45,0,0,1-.423-.148,4.637,4.637,0,0,1-.423-.282l-.134.094a1.041,1.041,0,0,0,.242.41.631.631,0,0,0,.6.215l.618-.054a1.739,1.739,0,0,0,.839-.322l-.195-.282A1.343,1.343,0,0,1,34.431,212.382Z" transform="translate(62.376 467.334)" fill="#616161"/>
      <path id="Path_16884" data-name="Path 16884" d="M36.169,207.73l.618-.054a.443.443,0,0,1,.443.175l.067-.571a.342.342,0,0,0-.275-.1l-.806.134a1.814,1.814,0,0,0-.886.349l.222.316a1.2,1.2,0,0,1,.618-.248Z" transform="translate(61.578 468.95)" fill="#616161"/>
      <path id="Path_16885" data-name="Path 16885" d="M37.474,207.911a.47.47,0,0,1,0,.43l-.94,1.739a1.29,1.29,0,0,1-.463.51l.195.282a1.86,1.86,0,0,0,.672-.719l.866-1.84a.672.672,0,0,0,0-.672,2.289,2.289,0,0,0-.235-.322Z" transform="translate(61.335 468.904)" fill="#757575"/>
      <path id="Path_16886" data-name="Path 16886" d="M34.177,210.875l-.618.047c-.578.054-.853-.336-.6-.86l.866-1.847a2.015,2.015,0,0,1,1.491-1.034l.618-.054c.578-.054.846.336.6.86l-.893,1.847a2.015,2.015,0,0,1-1.464,1.041Zm1-3.412a1.4,1.4,0,0,0-1.041.725l-.866,1.847c-.175.369,0,.638.416.6l.625-.054a1.417,1.417,0,0,0,1.041-.725l.866-1.847c.175-.369,0-.638-.423-.6Z" transform="translate(62.388 468.968)" fill="#b1b1b1"/>
      <path id="Path_16887" data-name="Path 16887" d="M43.351,200.451a.51.51,0,0,1,.356-.309l1.948-.6a1.276,1.276,0,0,1,.672,0l.081-.376a1.847,1.847,0,0,0-.92,0l-2.142.611a.349.349,0,0,0-.175.128h.154Z" transform="translate(59.003 471.602)" fill="#757575"/>
      <path id="Path_16888" data-name="Path 16888" d="M43.943,201.566l-.484-.3a.45.45,0,0,1-.175-.416,4.141,4.141,0,0,1-.081-.5h-.154a1.061,1.061,0,0,0-.141.457.672.672,0,0,0,.248.591l.457.416a1.793,1.793,0,0,0,.806.4l.074-.336a1.263,1.263,0,0,1-.551-.316Z" transform="translate(59.09 471.193)" fill="#616161"/>
      <path id="Path_16889" data-name="Path 16889" d="M48.408,199.835l.45.423a.423.423,0,0,1,.168.443l.47-.336a.349.349,0,0,0-.114-.269l-.672-.51a1.907,1.907,0,0,0-.86-.416l-.081.376a1.3,1.3,0,0,1,.638.289Z" transform="translate(57.492 471.58)" fill="#616161"/>
      <path id="Path_16890" data-name="Path 16890" d="M48.179,201.286a.463.463,0,0,1-.322.269l-1.921.49a1.417,1.417,0,0,1-.672,0l-.074.336a1.887,1.887,0,0,0,.967,0l1.948-.611a.672.672,0,0,0,.484-.43,1.666,1.666,0,0,0,.081-.389Z" transform="translate(58.34 470.996)" fill="#757575"/>
      <path id="Path_16891" data-name="Path 16891" d="M43.708,200.964l-.457-.423a.557.557,0,0,1,.235-1.028l1.941-.6a2.015,2.015,0,0,1,1.78.4l.457.423a.551.551,0,0,1-.235,1.021l-1.941.611A2.015,2.015,0,0,1,43.708,200.964Zm3.2-1.565a1.4,1.4,0,0,0-1.242-.275l-1.948.6a.39.39,0,0,0-.161.719l.457.423a1.43,1.43,0,0,0,1.242.275l1.948-.6a.39.39,0,0,0,.161-.719Z" transform="translate(59.063 471.687)" fill="#b1b1b1"/>
      <path id="Path_16892" data-name="Path 16892" d="M38.1,202.7a.551.551,0,0,1,.282-.376l1.766-1.014a1.343,1.343,0,0,1,.618-.154v-.383a1.928,1.928,0,0,0-.893.215l-1.948,1.075a.342.342,0,0,0-.148.161h.148Z" transform="translate(60.773 471.055)" fill="#757575"/>
      <path id="Path_16893" data-name="Path 16893" d="M38.894,203.958l-.537-.188a.45.45,0,0,1-.262-.363,4.7,4.7,0,0,1-.188-.477h-.161a1.162,1.162,0,0,0-.04.477.672.672,0,0,0,.383.517l.531.316a1.928,1.928,0,0,0,.873.215v-.349A1.343,1.343,0,0,1,38.894,203.958Z" transform="translate(60.801 470.345)" fill="#616161"/>
      <path id="Path_16894" data-name="Path 16894" d="M42.9,201.314l.537.309a.423.423,0,0,1,.255.4l.41-.416a.329.329,0,0,0-.168-.235L43.2,201a1.968,1.968,0,0,0-.927-.215v.383A1.343,1.343,0,0,1,42.9,201.314Z" transform="translate(59.299 471.048)" fill="#616161"/>
      <path id="Path_16895" data-name="Path 16895" d="M43.073,202.41a.463.463,0,0,1-.255.336l-1.766.9a1.4,1.4,0,0,1-.672.148v.349a1.947,1.947,0,0,0,.947-.215l1.766-1.021a.672.672,0,0,0,.376-.531,1.585,1.585,0,0,0,0-.4Z" transform="translate(59.919 470.657)" fill="#757575"/>
      <path id="Path_16896" data-name="Path 16896" d="M38.624,203.138l-.531-.316a.551.551,0,0,1,0-1.048l1.76-1.021a2.015,2.015,0,0,1,1.82,0l.537.309a.557.557,0,0,1,0,1.054l-1.766,1.014A2.015,2.015,0,0,1,38.624,203.138Zm2.78-2.223a1.424,1.424,0,0,0-1.276,0l-1.766,1.014a.39.39,0,0,0,0,.739l.537.309a1.424,1.424,0,0,0,1.276,0l1.76-1.021a.39.39,0,0,0,0-.732Z" transform="translate(60.795 471.132)" fill="#b1b1b1"/>
      <path id="Path_16897" data-name="Path 16897" d="M48.63,199.2a.51.51,0,0,1,.423-.195l2.015-.047a1.343,1.343,0,0,1,.618.161l.181-.336a1.847,1.847,0,0,0-.886-.235h-2.2a.336.336,0,0,0-.208.074l.141.074Z" transform="translate(57.23 471.784)" fill="#757575"/>
      <path id="Path_16898" data-name="Path 16898" d="M48.936,200.111l-.383-.423a.423.423,0,0,1-.054-.443,4.238,4.238,0,0,1,.06-.51l-.141-.074a1.075,1.075,0,0,0-.262.4.672.672,0,0,0,.081.638l.322.531a1.813,1.813,0,0,0,.672.6l.161-.3A1.283,1.283,0,0,1,48.936,200.111Z" transform="translate(57.38 471.748)" fill="#616161"/>
      <path id="Path_16899" data-name="Path 16899" d="M53.757,199.682l.322.524a.437.437,0,0,1,.04.477l.544-.195a.343.343,0,0,0-.034-.289l-.477-.672a1.888,1.888,0,0,0-.712-.638l-.181.336a1.3,1.3,0,0,1,.5.457Z" transform="translate(55.689 471.672)" fill="#616161"/>
      <path id="Path_16900" data-name="Path 16900" d="M52.947,201.465a.45.45,0,0,1-.39.168l-2.015-.054a1.424,1.424,0,0,1-.672-.195l-.161.3a1.82,1.82,0,0,0,.934.269l2.015-.047a.672.672,0,0,0,.584-.282,1.961,1.961,0,0,0,.188-.356Z" transform="translate(56.855 470.891)" fill="#757575"/>
      <path id="Path_16901" data-name="Path 16901" d="M48.776,199.844l-.322-.531c-.3-.5-.081-.907.5-.92l2.015-.054a2.015,2.015,0,0,1,1.6.873l.322.531c.3.5.074.907-.5.92l-2.015.054A2.015,2.015,0,0,1,48.776,199.844Zm3.5-.625a1.437,1.437,0,0,0-1.122-.611l-2.015.054c-.4,0-.564.3-.349.672l.322.531a1.424,1.424,0,0,0,1.115.611l2.015-.054c.41,0,.564-.3.356-.672Z" transform="translate(57.312 471.853)" fill="#b1b1b1"/>
      <path id="Path_16902" data-name="Path 16902" d="M54.414,201.528l-1.518.081c-.336.195-.168,1.054-.181,1.31a.712.712,0,0,0,.188.5l1.766,1.954,5.212-3.009-3.358-1.028A2.867,2.867,0,0,0,54.414,201.528Z" transform="translate(55.878 470.908)" fill="#424242"/>
      <path id="Path_16903" data-name="Path 16903" d="M54.426,200.121l-1.182.672c-.551.316-.672.8-.343,1.2l1.766,1.974,5.212-3.009-3.358-1.028a2.868,2.868,0,0,0-2.1.188Z" transform="translate(55.867 471.368)" fill="#919191"/>
      <path id="Path_16904" data-name="Path 16904" d="M71.777,204.8a4.278,4.278,0,0,0-1.961-2.075,11.417,11.417,0,0,0-10.316,0l1.343.786a8.422,8.422,0,0,1,7.582,0,2.686,2.686,0,0,1,1.565,2.142l.886.369Z" transform="translate(53.64 470.816)" fill="#424242"/>
      <path id="Path_16905" data-name="Path 16905" d="M75.271,207.642l-.886-.369a2.677,2.677,0,0,1-1.565,2.236l1.343.792c1.82-1.054,2.471-2.525,1.961-3.882Z" transform="translate(49.266 469.199)" fill="#616161"/>
      <path id="Path_16906" data-name="Path 16906" d="M69.839,208.215l-1.343-.792c2.1-1.209,2.1-3.17,0-4.379a8.381,8.381,0,0,0-7.582,0l-1.343-.786a11.417,11.417,0,0,1,10.316,0C72.686,203.9,72.686,206.569,69.839,208.215Z" transform="translate(53.617 470.971)" fill="#757575"/>
      <path id="Path_16907" data-name="Path 16907" d="M55.494,207.586h.591a2.686,2.686,0,0,1,1.565-2.163l1.558-.886v-.947l-2.935,1.061a10.43,10.43,0,0,0-1.813,1.108l.672.732Z" transform="translate(55.295 470.129)" fill="#616161"/>
      <path id="Path_16908" data-name="Path 16908" d="M58.821,204.927,60.385,204v.316l-1.565.907C57.786,205.84,57.786,205.525,58.821,204.927Z" transform="translate(54.118 469.994)" fill="#424242"/>
      <path id="Path_16909" data-name="Path 16909" d="M65.08,210.853a8.381,8.381,0,0,1-7.582,0,2.642,2.642,0,0,1-1.565-2.216h-.584l-.336-1.115-.672-.732a1.465,1.465,0,0,0-.228.275,7.9,7.9,0,0,0-.087,1.6,3.617,3.617,0,0,0,2.129,2.975,11.417,11.417,0,0,0,10.322,0l1.565-.9v-.947Z" transform="translate(55.441 469.078)" fill="#424242"/>
      <path id="Path_16910" data-name="Path 16910" d="M68.005,208.347l-1.565.9a11.417,11.417,0,0,1-10.322,0c-2.841-1.639-2.841-4.312,0-5.957l1.572-.9,1.343.786-1.565.907c-2.089,1.209-2.089,3.17,0,4.379a8.381,8.381,0,0,0,7.582,0l1.565-.907Z" transform="translate(55.451 470.523)" fill="#b1b1b1"/>
      <path id="Path_16911" data-name="Path 16911" d="M73.064,210.891a.2.2,0,0,1,0,.383.739.739,0,0,1-.672,0,.2.2,0,0,1,0-.383.739.739,0,0,1,.672,0Z" transform="translate(49.452 467.758)" fill="#757575"/>
      <path id="Path_16912" data-name="Path 16912" d="M59.665,203.46c.107.06-.195.336-.672.611a2.015,2.015,0,0,1-1.054.383c-.107-.06.195-.329.672-.6A2.082,2.082,0,0,1,59.665,203.46Z" transform="translate(54.16 470.171)" fill="#757575"/>
      <path id="Path_16913" data-name="Path 16913" d="M56.352,201.443a.927.927,0,0,0-.819,0,.248.248,0,0,0,0,.477.846.846,0,0,0,.578.081l.477.275.383-.222-.477-.275C56.554,201.665,56.513,201.537,56.352,201.443Z" transform="translate(55.002 470.865)" fill="#616161"/>
      <path id="Path_16914" data-name="Path 16914" d="M53.636,202.138c.1.054.1.148,0,.208a.383.383,0,0,1-.363,0c-.1-.06-.1-.154,0-.208a.383.383,0,0,1,.363,0Z" transform="translate(55.71 470.621)" fill="#b1b1b1"/>
      <path id="Path_16915" data-name="Path 16915" d="M57.1,200.138c.1.06.1.154,0,.208a.383.383,0,0,1-.363,0c-.1-.054-.1-.148,0-.208a.383.383,0,0,1,.363,0Z" transform="translate(54.574 471.277)" fill="#b1b1b1"/>
      <path id="Path_16916" data-name="Path 16916" d="M55.062,203.9a.114.114,0,0,1,0,.215.443.443,0,0,1-.369,0,.114.114,0,0,1,0-.215.443.443,0,0,1,.369,0Z" transform="translate(55.244 470.04)" fill="#b1b1b1"/>
      <path id="Path_16917" data-name="Path 16917" d="M60.152,200.98a.114.114,0,0,1,0,.215.443.443,0,0,1-.369,0,.114.114,0,0,1,0-.215A.443.443,0,0,1,60.152,200.98Z" transform="translate(53.572 470.999)" fill="#b1b1b1"/>
      <path id="Path_16918" data-name="Path 16918" d="M33.926,213.447l-1.538.081c-.336.195-.161,1.054-.175,1.343a.672.672,0,0,0,.181.49l1.766,1.954,5.212-3.009-3.358-1.028a2.854,2.854,0,0,0-2.089.168Z" transform="translate(62.612 466.987)" fill="#424242"/>
      <path id="Path_16919" data-name="Path 16919" d="M33.945,212.025l-1.182.672c-.551.316-.672.8-.349,1.2l1.766,1.954,5.212-3.009-3.358-1.028a2.854,2.854,0,0,0-2.089.208Z" transform="translate(62.594 467.463)" fill="#919191"/>
      <path id="Path_16920" data-name="Path 16920" d="M51.287,216.713a4.217,4.217,0,0,0-1.961-2.075,11.417,11.417,0,0,0-10.316,0l1.343.786a8.422,8.422,0,0,1,7.582,0,2.686,2.686,0,0,1,1.565,2.142l.886.369Z" transform="translate(60.369 466.905)" fill="#424242"/>
      <path id="Path_16921" data-name="Path 16921" d="M54.8,219.552l-.886-.369a2.677,2.677,0,0,1-1.565,2.236l1.343.792c1.827-1.054,2.471-2.525,1.961-3.882Z" transform="translate(55.988 465.288)" fill="#616161"/>
      <path id="Path_16922" data-name="Path 16922" d="M49.349,220.125l-1.343-.792c2.089-1.209,2.089-3.17,0-4.379a8.422,8.422,0,0,0-7.582,0l-1.343-.786a11.417,11.417,0,0,1,10.316,0C52.2,215.806,52.2,218.479,49.349,220.125Z" transform="translate(60.346 467.059)" fill="#757575"/>
      <path id="Path_16923" data-name="Path 16923" d="M35.014,219.493H35.6a2.686,2.686,0,0,1,1.565-2.169l1.572-.907v-.947L35.8,216.538a10.027,10.027,0,0,0-1.8,1.1l.672.732Z" transform="translate(62.015 466.227)" fill="#616161"/>
      <path id="Path_16924" data-name="Path 16924" d="M38.331,216.847l1.572-.907v.316l-1.572.907C37.3,217.76,37.3,217.444,38.331,216.847Z" transform="translate(60.847 466.073)" fill="#424242"/>
      <path id="Path_16925" data-name="Path 16925" d="M44.584,222.763a8.382,8.382,0,0,1-7.582,0,2.655,2.655,0,0,1-1.565-2.21h-.584l-.343-1.122-.672-.732a1.283,1.283,0,0,0-.235.275,8.421,8.421,0,0,0-.087,1.6,3.63,3.63,0,0,0,2.136,2.982,11.417,11.417,0,0,0,10.316,0l1.565-.907V221.7Z" transform="translate(62.176 465.166)" fill="#424242"/>
      <path id="Path_16926" data-name="Path 16926" d="M47.5,220.257l-1.592.907a11.417,11.417,0,0,1-10.316,0c-2.848-1.645-2.848-4.318,0-5.957l1.585-.907,1.343.786-1.572.907c-2.089,1.209-2.089,3.17,0,4.379a8.382,8.382,0,0,0,7.582,0l1.605-.9Z" transform="translate(62.192 466.611)" fill="#b1b1b1"/>
      <ellipse id="Ellipse_877" data-name="Ellipse 877" cx="0.463" cy="0.269" rx="0.463" ry="0.269" transform="translate(107.969 686.573)" fill="#757575"/>
      <path id="Path_16927" data-name="Path 16927" d="M39.146,215.37c.107.06-.195.336-.672.611a2.015,2.015,0,0,1-1.054.383c-.1-.06.195-.329.672-.6A2.1,2.1,0,0,1,39.146,215.37Z" transform="translate(60.898 466.26)" fill="#757575"/>
      <path id="Path_16928" data-name="Path 16928" d="M35.872,213.353a.94.94,0,0,0-.826,0c-.228.134-.228.349,0,.477a.86.86,0,0,0,.584.081l.47.275.383-.222-.47-.269C36.074,213.575,36.027,213.447,35.872,213.353Z" transform="translate(61.727 466.954)" fill="#616161"/>
      <path id="Path_16929" data-name="Path 16929" d="M33.146,214.048c.1.06.1.154,0,.208a.383.383,0,0,1-.363,0c-.1-.054-.1-.148,0-.208a.383.383,0,0,1,.363,0Z" transform="translate(62.439 466.709)" fill="#b1b1b1"/>
      <path id="Path_16930" data-name="Path 16930" d="M36.606,212.048c.1.06.1.154,0,.208a.383.383,0,0,1-.363,0c-.1-.054-.1-.148,0-.208a.383.383,0,0,1,.363,0Z" transform="translate(61.303 467.366)" fill="#b1b1b1"/>
      <ellipse id="Ellipse_878" data-name="Ellipse 878" cx="0.255" cy="0.148" rx="0.255" ry="0.148" transform="translate(96.109 681.899)" fill="#b1b1b1"/>
      <path id="Path_16931" data-name="Path 16931" d="M39.666,212.878c.1.054.1.148,0,.208a.383.383,0,0,1-.363,0c-.1-.06-.1-.154,0-.208A.383.383,0,0,1,39.666,212.878Z" transform="translate(60.298 467.094)" fill="#b1b1b1"/>
    </g>
  </g>
</svg>
